<svg xmlns="http://www.w3.org/2000/svg" width="613" height="449" fill="none" viewBox="0 0 613 449">
  <path stroke="#2E0E36" stroke-linecap="round" stroke-linejoin="round" stroke-miterlimit="10" d="m452.6 320.175-50.3 29-88 50.8c-23.3 13.5-52.1 13.5-75.4 0l-100.6-58.1-12.6-7.3-62.9 36.3"/>
  <path stroke="#2E0E36" stroke-linecap="round" stroke-linejoin="round" stroke-miterlimit="10" d="m113.1 400.075 50.3-29.1-37.7-21.7-50.3 29m50.3 29 50.3-29 50.3 29 7.1 4.1c26.7 15.4 59.6 15.4 86.3 0l95.1-54.9 37.7 21.8 25.1 14.5-62.7 36.3m37.7-94.4-25.1 14.6 37.7 21.7 62.9 36.3 62.8-36.3m12.6 7.3-62.9 36.3 25.2 14.5m-12.6 7.3-62.8-36.3-62.9 36.3"/>
  <path fill="#fff" stroke="#2E0E36" stroke-linecap="round" stroke-linejoin="round" stroke-miterlimit="10" d="m256.8 172.275-47-57.2-37.7 21.7-.4 10.6 38.1 52 47-27.1Zm0-120.4-47-27.2-37.7 21.7-.4 10.7 38.1 22 47-27.2Z"/>
  <path fill="#fff" stroke="#2E0E36" stroke-linecap="round" stroke-linejoin="round" stroke-miterlimit="10" d="M209.8 79.075v120.3l47-27.1v-120.4l-47 27.2Z"/>
  <path fill="#501D92" stroke="#2E0E36" stroke-linecap="round" stroke-linejoin="round" stroke-miterlimit="10" d="M209.8 199.375v-120.3l-38.1-22v120.3l38.1 22Z"/>
  <path fill="#fff" stroke="#2E0E36" stroke-linecap="round" stroke-linejoin="round" stroke-miterlimit="10" d="m236.8 50.675-27-15.6-21.7 12.4-.2 6.1 21.9 12.7 27-15.6Zm0-31.9-27-15.7-21.7 12.5-.2 6.1 21.9 12.7 27-15.6Z"/>
  <path fill="#fff" stroke="#2E0E36" stroke-linecap="round" stroke-linejoin="round" stroke-miterlimit="10" d="M234.7 14.875 210 .675l-19.8 11.4-.2 5.6 20 11.5 24.7-14.3Z"/>
  <path fill="#501D92" stroke="#2E0E36" stroke-linecap="round" stroke-linejoin="round" stroke-miterlimit="10" d="m226.7 14.875-8.5 4.9-8.2-4.7v-9.8l16.7 9.6Z"/>
  <path stroke="#2E0E36" stroke-linecap="round" stroke-linejoin="round" stroke-miterlimit="10" d="M210 5.275v9.8l-8.3 4.7-7.6-4.4v-1l15.9-9.1Z"/>
  <path stroke="#2E0E36" stroke-linecap="round" stroke-linejoin="round" stroke-miterlimit="10" d="m218.2 19.775-8.2 4.8-8.3-4.8 8.3-4.7 8.2 4.7Z"/>
  <path stroke="#2E0E36" stroke-linecap="round" stroke-linejoin="round" stroke-miterlimit="10" d="m218.2 19.775-8.2 4.8-8.3-4.8 8.3-4.7 8.2 4.7Z"/>
  <path fill="#fff" stroke="#2E0E36" stroke-linecap="round" stroke-linejoin="round" stroke-miterlimit="10" d="M209.8 34.375v31.9l27-15.6v-31.9l-27 15.6Z"/>
  <path fill="#501D92" stroke="#2E0E36" stroke-linecap="round" stroke-linejoin="round" stroke-miterlimit="10" d="M209.8 66.275v-31.9l-21.9-12.7v31.9l21.9 12.7Z"/>
  <path fill="#fff" stroke="#2E0E36" stroke-linecap="round" stroke-linejoin="round" stroke-miterlimit="10" d="m209.8 34.375.2-5.2 24.7-14.3 2.1 3.9-27 15.6Z"/>
  <path fill="#BAC2FF" stroke="#2E0E36" stroke-linecap="round" stroke-linejoin="round" stroke-miterlimit="10" d="m209.8 34.375.2-5.2-20-11.5-2.1 4 21.9 12.7Z"/>
  <path fill="#fff" stroke="#2E0E36" stroke-linecap="round" stroke-linejoin="round" stroke-miterlimit="10" d="m190.2 12.075-2.1 3.5-.2 6.1 2.1-4 .2-5.6Z"/>
  <path fill="#BAC2FF" d="m219 90.375 2.8-1.5v56.3l-2.8 1.5v-56.3Zm6.6-3.7 2.7-1.6v56.3l-2.7 1.6v-56.3Zm6.6-3.8 2.7-1.6v56.3l-2.7 1.6v-56.3Zm6.5-3.8 2.7-1.6v56.3l-2.7 1.6v-56.3Zm6.6-3.8 2.7-1.6v56.3l-2.7 1.6v-56.3Z"/>
  <path fill="#2E0E36" d="m200 90.375-2.8-1.5v56.3l2.8 1.5v-56.3Zm-6.6-3.8-2.7-1.5v56.3l2.7 1.5v-56.3Zm-6.5-3.8-2.7-1.5v56.3l2.7 1.5v-56.3Zm-6.5-3.8-2.7-1.5v56.3l2.7 1.5v-56.3Z"/>
  <path fill="#501D92" stroke="#2E0E36" stroke-linecap="round" stroke-linejoin="round" stroke-miterlimit="10" d="M103.2 84.575v4.3c0 .2.1.5.4.6l4.2 2.4c.3.2.6.2.9.2v-7.5h-5.5Z"/>
  <path fill="#fff" stroke="#2E0E36" stroke-linecap="round" stroke-linejoin="round" stroke-miterlimit="10" d="M108.6 84.575v7.5c.2 0 .5-.1.7-.2l4.2-2.4c.2-.1.4-.4.4-.6v-4.3h-5.3Z"/>
  <path fill="#BAC2FF" stroke="#2E0E36" stroke-linecap="round" stroke-linejoin="round" stroke-miterlimit="10" d="m113.5 85.275-4.2 2.4c-.2.1-.5.2-.7.2v-6.5c.2 0 .5.1.7.2l4.2 2.4c.4.3.4 1 0 1.3Z"/>
  <path fill="#fff" stroke="#2E0E36" stroke-linecap="round" stroke-linejoin="round" stroke-miterlimit="10" d="M108.6 81.375v6.5c-.3 0-.6 0-.9-.2l-4.2-2.4c-.5-.3-.5-1 0-1.2l4.2-2.4c.3-.3.6-.3.9-.3Z"/>
  <path stroke="#2E0E36" stroke-linecap="round" stroke-linejoin="round" stroke-miterlimit="10" d="M108.5 87.875v-5.6"/>
  <path fill="#fff" d="M128.4 53.375c0 11-8.9 28.8-19.9 28.8-11 0-19.9-17.8-19.9-28.8s8.9-19.9 19.9-19.9c11 0 19.9 8.9 19.9 19.9Z"/>
  <path fill="#501D92" d="M108.5 82.275c-11 0-19.9-17.8-19.9-28.8v-1c.5-10.5 9.3-18.9 19.9-18.9-5.5 0-10 8.9-10 20 0 2.6.3 5.6.7 8.7 1.5 9.6 5.1 20 9.3 20Z"/>
  <path stroke="#2E0E36" stroke-linecap="round" stroke-linejoin="round" stroke-miterlimit="10" d="M128.4 53.375c0 11-8.9 28.8-19.9 28.8-11 0-19.9-17.8-19.9-28.8s8.9-19.9 19.9-19.9c11 0 19.9 8.9 19.9 19.9Z"/>
  <path stroke="#2E0E36" stroke-linecap="round" stroke-linejoin="round" stroke-miterlimit="10" d="M118.5 53.375c0 11-4.5 28.8-10 28.8s-10-17.8-10-28.8 4.5-19.9 10-19.9 10 8.9 10 19.9Z"/>
  <path stroke="#fff" stroke-linecap="round" stroke-linejoin="round" stroke-miterlimit="10" d="M99.2 62.075c-1.7-.5-3.3-1.2-4.8-2-3.9-2.3-5.9-5.2-5.9-8.2"/>
  <path stroke="#2E0E36" stroke-linecap="round" stroke-linejoin="round" stroke-miterlimit="10" d="M128.4 51.875c0 3-1.9 5.9-5.8 8.2-3.9 2.3-9 3.4-14.1 3.4-3.2 0-6.5-.4-9.4-1.3m4.1 22.3-.8-4m11.4 4 .8-4m9.5-34.2c.4.9.8 1.9 1 3m-2.6-6s.3.4.6 1.1"/>
  <path fill="#BAC2FF" d="M318.7 261.275c-10.3-7.4 68.1-90.9 68.1-90.9l-109-53.5-169 98.4 238.6 137.8h23s-41.4-84.4-51.7-91.8Z"/>
  <path fill="#501D92" stroke="#2E0E36" stroke-linecap="round" stroke-linejoin="round" stroke-miterlimit="10" d="m544.7 252.375-62.6-73.6-62.7 1.2-62.7-73.6-62.7 1.2-174.3 100.7 62.7-1.2 62.6 73.6 62.7-1.3 62.7 73.7 174.3-100.7Z"/>
  <path fill="#fff" stroke="#2E0E36" stroke-linecap="round" stroke-linejoin="round" stroke-miterlimit="10" d="m546.8 248.875-62.7-73.6-62.7 1.2-62.7-73.6-62.6 1.2-174.4 100.7 62.7-1.3 62.7 73.6 62.7-1.2 62.7 73.6 174.3-100.6Z"/>
  <path stroke="#2E0E36" stroke-linecap="round" stroke-linejoin="round" stroke-miterlimit="10" d="m323.4 268.075-13.6 7.8m174.3-100.6-13.4 7.7m-210.2 86.4-13.4 7.7m174.3-100.6-13.4 7.7m-210.2 11.6-13.4 7.7m174.4-100.6-13.5 7.7"/>
  <path fill="#fff" stroke="#2E0E36" stroke-linecap="round" stroke-linejoin="round" stroke-miterlimit="10" d="m345.3 110.575-147.5 85.2-47.1.9 147.5-85.1 47.1-1Zm125.4 72.4-147.3 85.1-62.4 1.8-.5-.5 147.5-85.2 62.7-1.2Z"/>
  <path stroke="#2E0E36" stroke-linecap="round" stroke-linejoin="round" stroke-miterlimit="10" d="m408 184.175-147.5 85.2-62.7-73.6 147.5-85.2h.3l62.4 73.6Zm114.5 59.7-147.3 85-17.8-20.9-34-39.9 147.3-85.1 34 40 17.8 20.9Z"/>
  <path fill="#501D92" d="m348 195.275 4.9 6.3 6-8.8-10.9 2.5Zm-5.4-7 4.8 6.3 6.1-8.8-10.9 2.5Zm0-13.6 4.8 6.2 6.1-8.8-10.9 2.6Zm43.7 89.5 4.8 6.2 6.1-8.8-10.9 2.6Zm-5.5-7 4.9 6.2 6-8.8-10.9 2.6Zm0-13.7 4.9 6.2 6-8.8-10.9 2.6Zm-181.5-58.1 7.6.1 3.3-5.1-10.9 5Zm143.6 59.8 7.7.1 3.3-5.1-11 5Zm-47.6-120.9 7.6.1 3.3-5.2-10.9 5.1Zm-105.1 60.8 7.6.1 3.3-5.1-10.9 5Z"/>
  <path stroke="#2E0E36" stroke-linecap="round" stroke-linejoin="round" stroke-miterlimit="10" d="m394.9 317.475-9.5-24.1-54-30-36.5-13.9v-37.9l-55-40.1-42.6-1.7 9.4-5.4 42.9 1.5 52.4 38.1 24.5-7.2-22.4-62.4-54 4.9 10-5.8 52.8-4.2 32.3 91.2 57.6 1.7 26.9 23.1 33.3-8.7-9.2-43.8-23.5-9 16.7-.3 14.7 4.7 12 54.7-46.2 12.8-33.9-28.2-57-2-7.2-18.9-25 6.9v30.6l36 14.2 53.2 29.6 9.2 25.1-7.9 4.5Z"/>
  <path stroke="#2E0E36" stroke-linecap="round" stroke-linejoin="round" stroke-miterlimit="10" d="m444.6 288.775-4.6-16 63.6-23.1 5.6 1.8m-146.3-120.5 13.7 41.1 19.2-2.3"/>
  <path fill="#501D92" stroke="#2E0E36" stroke-linecap="round" stroke-linejoin="round" stroke-miterlimit="10" d="M302.1 183.075c-4.5-7.7-10.3-13.7-16.2-17.1-3.8-2.2-7.5-3.3-11-3.1-1.9.1-3.7.6-5.3 1.5-8.1 4.6-9.1 18.9-2.1 33.4l18.2 38.3 8.1-7.5 10.3-9.6c3.1-2.9 4.7-7.7 4.7-13.2 0-7-2.2-15-6.7-22.7Zm-5.4 17.2c-.3 2.5-1.3 4.5-3.1 5.5-2.2 1.2-5 .8-7.8-.8s-5.6-4.5-7.7-8.2c-2.1-3.7-3.2-7.5-3.2-10.8 0-3.2 1.1-5.8 3.3-7.1 1.8-1 4-.9 6.3 0 .5.2 1 .4 1.5.7 2.8 1.6 5.6 4.5 7.8 8.2 2.1 3.7 3.2 7.6 3.2 10.8-.2.7-.2 1.2-.3 1.7Z"/>
  <path fill="#fff" stroke="#2E0E36" stroke-linecap="round" stroke-linejoin="round" stroke-miterlimit="10" d="M296.7 200.275c-.3 2.5-1.3 4.5-3.1 5.5-2.2 1.2-5 .8-7.8-.8s-5.6-4.5-7.7-8.2c-2.1-3.7-3.2-7.5-3.2-10.8 0-3.2 1.1-5.8 3.3-7.1 1.8-1 4-.9 6.3 0-.1.5-.1 1-.1 1.6 0 3.2 1.1 7.1 3.2 10.8 2.1 3.7 5 6.6 7.8 8.2.3.4.8.6 1.3.8Z"/>
  <path fill="#fff" stroke="#2E0E36" stroke-linecap="round" stroke-linejoin="round" stroke-miterlimit="10" d="M318.3 200.175c0 5.6-1.6 10.3-4.7 13.2l-18.4 17.2-9.4 5.4 8.1-7.5 10.3-9.6c3.1-2.9 4.7-7.7 4.7-13.2 0-6.8-2.2-14.9-6.7-22.6-4.5-7.7-10.3-13.7-16.2-17.1-3.8-2.2-7.5-3.3-11-3.1-1.9.1-3.7.6-5.3 1.5l9.4-5.5c4.5-2.6 10.4-1.7 16.3 1.6 5.9 3.4 11.8 9.4 16.2 17.1 4.4 7.7 6.7 15.8 6.7 22.6Z"/>
  <path fill="#BAC2FF" d="m177.5 278.475-32.8-30h-53l-40.7 23.5 41.3 23.9 16.1-9.3 16.1 9.3h55l-2-17.4Z"/>
  <path fill="#fff" stroke="#2E0E36" stroke-linecap="round" stroke-linejoin="round" stroke-miterlimit="10" d="m147.3 295.875 16.1-9.3 16.1 9.3 24.6-14.2-57.4-33.2-40.7 23.5 41.3 23.9Zm0-92.6 16.1-9.3 16.1 9.3 24.6-14.2-57.4-33.1-40.7 23.4 41.3 23.9Z"/>
  <path fill="#fff" stroke="#2E0E36" stroke-linecap="round" stroke-linejoin="round" stroke-miterlimit="10" d="m147.5 199.775 15.4-8.9 15.4 8.9 23.9-13.8-55-31.8-39.3 22.7 39.6 22.9Z"/>
  <path stroke="#2E0E36" stroke-linecap="round" stroke-linejoin="round" stroke-miterlimit="10" d="M147.2 157.175v2l-32.4 18.7-1.7-1 34.1-19.7Z"/>
  <path fill="#501D92" stroke="#2E0E36" stroke-linecap="round" stroke-linejoin="round" stroke-miterlimit="10" d="m197 185.975-1.7.9-48.1-27.7v-2l49.8 28.8Z"/>
  <path stroke="#2E0E36" stroke-linecap="round" stroke-linejoin="round" stroke-miterlimit="10" d="m195.3 186.875-17 9.8-15.4-8.9-15.4 8.9-32.7-18.8 32.4-18.7 48.1 27.7Z"/>
  <path fill="#fff" stroke="#2E0E36" stroke-linecap="round" stroke-linejoin="round" stroke-miterlimit="10" d="M163.4 193.975v92.6l-16.1 9.3v-92.6l16.1-9.3Z"/>
  <path fill="#501D92" stroke="#2E0E36" stroke-linecap="round" stroke-linejoin="round" stroke-miterlimit="10" d="m147.3 203.275-41.3-23.9v92.6l41.3 23.9v-92.6Z"/>
  <path fill="#2E0E36" d="m114.3 201.575-1.8-1.1v4.1l1.8 1v-4Zm0 8.2-1.8-1.1v4.1l1.8 1v-4Zm0 8.2-1.8-1.1v4.1l1.8 1v-4Zm0 8.2-1.8-1v4l1.8 1v-4Zm0 8.2-1.8-1v4l1.8 1v-4Zm0 8.2-1.8-1v4l1.8 1v-4Zm0 8.2-1.8-1v4l1.8 1v-4Zm5.4-46.1-1.8-1v4l1.8 1v-4Zm0 8.2-1.8-1v4l1.8 1v-4Zm0 8.2-1.8-1v4l1.8 1v-4Zm0 8.2-1.8-1v4l1.8 1v-4Zm0 8.2-1.8-1v4l1.8 1.1v-4.1Zm0 8.2-1.8-1v4l1.8 1.1v-4.1Zm0 8.2-1.8-1v4l1.8 1.1v-4.1Zm5.4-46.1-1.8-1v4l1.8 1.1v-4.1Zm0 8.2-1.8-1v4l1.8 1.1v-4.1Zm0 8.2-1.8-1v4l1.8 1.1v-4.1Zm0 8.3-1.8-1.1v4l1.8 1.1v-4Zm0 8.2-1.8-1.1v4l1.8 1.1v-4Zm0 8.2-1.8-1.1v4.1l1.8 1v-4Zm0 8.2-1.8-1.1v4.1l1.8 1v-4Zm5.5-46.1-1.8-1.1v4l1.8 1.1v-4Zm0 8.2-1.8-1.1v4.1l1.8 1v-4Zm0 8.2-1.8-1.1v4.1l1.8 1v-4Zm0 8.2-1.8-1.1v4.1l1.8 1v-4Zm0 8.2-1.8-1v4l1.8 1v-4Zm0 8.2-1.8-1v4l1.8 1v-4Zm0 8.2-1.8-1v4l1.8 1v-4Zm5.4-46.1-1.8-1v4l1.8 1v-4Zm0 8.2-1.8-1v4l1.8 1v-4Zm0 8.2-1.8-1v4l1.8 1v-4Zm0 8.2-1.8-1v4l1.8 1v-4Zm0 8.2-1.8-1v4l1.8 1v-4Zm0 8.2-1.8-1v4l1.8 1v-4Zm0 8.2-1.8-1v4l1.8 1.1v-4.1Zm5.4-46.1-1.8-1v4l1.8 1v-4Zm0 8.2-1.8-1v4l1.8 1v-4Zm0 8.2-1.8-1v4l1.8 1.1v-4.1Zm0 8.2-1.8-1v4l1.8 1.1v-4.1Zm0 8.2-1.8-1v4l1.8 1.1v-4.1Zm0 8.3-1.8-1.1v4l1.8 1.1v-4Zm0 8.2-1.8-1.1v4l1.8 1.1v-4Z"/>
  <path fill="#fff" stroke="#2E0E36" stroke-linecap="round" stroke-linejoin="round" stroke-miterlimit="10" d="M179.5 203.275v92.6l24.6-14.2v-92.6l-24.6 14.2Z"/>
  <path fill="#501D92" stroke="#2E0E36" stroke-linecap="round" stroke-linejoin="round" stroke-miterlimit="10" d="m179.5 203.275-16.1-9.3v92.6l16.1 9.3v-92.6Z"/>
  <path fill="#BAC2FF" stroke="#2E0E36" stroke-linecap="round" stroke-linejoin="round" stroke-miterlimit="10" d="m106 179.375 1.9-2.5 39.6 22.9-.2 3.5-41.3-23.9Z"/>
  <path fill="#fff" stroke="#2E0E36" stroke-linecap="round" stroke-linejoin="round" stroke-miterlimit="10" d="m147.5 199.775-.2 3.5 16.1-9.3-.5-3.1-15.4 8.9Z"/>
  <path fill="#BAC2FF" stroke="#2E0E36" stroke-linecap="round" stroke-linejoin="round" stroke-miterlimit="10" d="m162.9 190.875 15.4 8.9 1.2 3.5-16.1-9.3-.5-3.1Z"/>
  <path fill="#fff" stroke="#2E0E36" stroke-linecap="round" stroke-linejoin="round" stroke-miterlimit="10" d="m202.2 185.975 1.9 3.1-24.6 14.2-1.2-3.5 23.9-13.8Zm-81.7-8.3 3.4-2 3.4 2-3.4 1.9-3.4-1.9Z"/>
  <path fill="#BAC2FF" d="m198.4 209.375 1.8-1v4l-1.8 1v-4Zm0 8.2 1.8-1v4l-1.8 1v-4Zm0 8.2 1.8-1v4l-1.8 1v-4Zm0 8.2 1.8-1v4l-1.8 1v-4Zm0 8.2 1.8-1v4l-1.8 1v-4Zm0 8.2 1.8-1v4l-1.8 1.1v-4.1Zm0 8.2 1.8-1v4l-1.8 1.1v-4.1Zm-4.5-46.6 1.8-1v4l-1.8 1v-4Zm0 8.2 1.8-1v4l-1.8 1v-4Zm0 8.2 1.8-1v4l-1.8 1v-4Zm0 8.2 1.8-1v4l-1.8 1v-4Zm0 8.2 1.8-1v4l-1.8 1.1v-4.1Zm0 8.2 1.8-1v4l-1.8 1.1v-4.1Zm0 8.2 1.8-1v4l-1.8 1.1v-4.1Zm-4.6-46.6 1.8-1v4l-1.8 1v-4Zm0 8.2 1.8-1v4l-1.8 1v-4Zm0 8.2 1.8-1v4l-1.8 1v-4Zm0 8.2 1.8-1v4l-1.8 1.1v-4.1Zm0 8.2 1.8-1v4l-1.8 1.1v-4.1Zm0 8.2 1.8-1v4l-1.8 1.1v-4.1Zm0 8.3 1.8-1.1v4l-1.8 1.1v-4Zm-4.5-46.7 1.8-1v4l-1.8 1v-4Zm0 8.2 1.8-1v4l-1.8 1v-4Zm0 8.2 1.8-1v4l-1.8 1.1v-4.1Zm0 8.2 1.8-1v4l-1.8 1.1v-4.1Zm0 8.2 1.8-1v4l-1.8 1.1v-4.1Zm0 8.3 1.8-1.1v4l-1.8 1.1v-4Zm0 8.2 1.8-1.1v4l-1.8 1.1v-4Zm330.2 41.8h-59.7l-16.4 12.9 25.8 14.9h68.6l-18.3-27.8Z"/>
  <path fill="#fff" stroke="#2E0E36" stroke-linecap="round" stroke-linejoin="round" stroke-miterlimit="10" d="M512.6 205.775v118.4l-20.6 11.9v-97.5c0-5.8 2.1-11.3 5.9-15.7l14.7-17.1Z"/>
  <path fill="#501D92" stroke="#2E0E36" stroke-linecap="round" stroke-linejoin="round" stroke-miterlimit="10" d="M492 242.075v94l-25.8-14.9v-94l25.8 14.9Z"/>
  <path fill="#fff" stroke="#2E0E36" stroke-linecap="round" stroke-linejoin="round" stroke-miterlimit="10" d="m512.6 205.775-14.8 17c-3.8 4.4-5.9 9.9-5.9 15.7v3.5l-25.8-14.9v-3.6c0-5.8 2.1-11.3 5.8-15.7l14.8-17.1 25.9 15.1Z"/>
  <path fill="#501D92" stroke="#2E0E36" stroke-linecap="round" stroke-linejoin="round" stroke-miterlimit="10" d="M512.6 205.775v118.4l20.6 11.9v-97.5c0-5.8-2.1-11.3-5.9-15.7l-14.7-17.1Z"/>
  <path fill="#fff" stroke="#2E0E36" stroke-linecap="round" stroke-linejoin="round" stroke-miterlimit="10" d="m512.6 205.775 14.8 17.1c3.8 4.4 5.9 9.9 5.9 15.7v97.5l25.8-14.9v-97.5c0-5.8-2.1-11.3-5.9-15.7l-14.8-17.1-25.8 14.9Z"/>
  <path fill="#fff" stroke="#2E0E36" stroke-linecap="round" stroke-linejoin="round" stroke-miterlimit="10" d="M526.7 254.275h-28.1v78h28.1v-78Z"/>
  <path fill="#fff" stroke="#2E0E36" stroke-linecap="round" stroke-linejoin="round" stroke-miterlimit="10" d="m498.6 254.275 14-22.3 14.1 22.3h-28.1Z"/>
  <path fill="#fff" stroke="#2E0E36" stroke-linecap="round" stroke-linejoin="round" stroke-miterlimit="10" d="m498.6 246.775 14-22.3 14.1 22.3h-28.1Z"/>
  <path fill="#fff" stroke="#2E0E36" stroke-linecap="round" stroke-linejoin="round" stroke-miterlimit="10" d="m498.6 243.175 14-22.3 14.1 22.3h-28.1Z"/>
  <path fill="#BAC2FF" stroke="#2E0E36" stroke-linecap="round" stroke-linejoin="round" stroke-miterlimit="10" d="m498.6 246.775 2.4 3.7h23.5l2.2-3.7h-28.1Z"/>
  <path fill="#fff" stroke="#2E0E36" stroke-linecap="round" stroke-linejoin="round" stroke-miterlimit="10" d="m486.9 190.875 25.7 14.9 25.8-14.9h-51.5Z"/>
  <path fill="#fff" stroke="#2E0E36" stroke-linecap="round" stroke-linejoin="round" stroke-miterlimit="10" d="m486.9 187.675 25.7-14.9 25.8 14.9-25.8 14.9-25.7-14.9Z"/>
  <path fill="#501D92" stroke="#2E0E36" stroke-linecap="round" stroke-linejoin="round" stroke-miterlimit="10" d="m533.2 187.675-1.8 1-18.8-10.9v-2l20.6 11.9Z"/>
  <path stroke="#2E0E36" stroke-linecap="round" stroke-linejoin="round" stroke-miterlimit="10" d="M512.6 175.775v2l-18.8 10.9-1.7-1 20.5-11.9Z"/>
  <path stroke="#2E0E36" stroke-linecap="round" stroke-linejoin="round" stroke-miterlimit="10" d="m531.4 188.675-18.8 10.8-18.8-10.8 18.8-10.9 18.8 10.9Z"/>
  <path fill="#BAC2FF" stroke="#2E0E36" stroke-linecap="round" stroke-linejoin="round" stroke-miterlimit="10" d="M512.6 202.575v3.2l-25.7-14.9v-3.2l25.7 14.9Z"/>
  <path fill="#fff" stroke="#2E0E36" stroke-linecap="round" stroke-linejoin="round" stroke-miterlimit="10" d="m512.6 202.575 25.8-14.9v3.2l-25.8 14.9v-3.2Z"/>
  <path fill="#501D92" d="M504.7 318.675c-.7 0-1.3-.6-1.3-1.3v-51.2c0-.7.6-1.3 1.3-1.3.7 0 1.3.6 1.3 1.3v51.2c0 .7-.6 1.3-1.3 1.3Zm5.3 0c-.7 0-1.3-.6-1.3-1.3v-51.2c0-.7.6-1.3 1.3-1.3.7 0 1.3.6 1.3 1.3v51.2c0 .7-.6 1.3-1.3 1.3Zm5.3 0c-.7 0-1.3-.6-1.3-1.3v-51.2c0-.7.6-1.3 1.3-1.3.7 0 1.3.6 1.3 1.3v51.2c.1.7-.6 1.3-1.3 1.3Zm5.3 0c-.7 0-1.3-.6-1.3-1.3v-51.2c0-.7.6-1.3 1.3-1.3.7 0 1.3.6 1.3 1.3v51.2c.1.7-.5 1.3-1.3 1.3Z"/>
  <path fill="#BAC2FF" d="m552 252.275 1.8-1.1v4.1l-1.8 1v-4Zm0 8.2 1.8-1.1v4.1l-1.8 1v-4Zm0 8.2 1.8-1v4l-1.8 1v-4Zm0 8.2 1.8-1v4l-1.8 1v-4Zm0 8.2 1.8-1v4l-1.8 1v-4Zm0 8.2 1.8-1v4l-1.8 1v-4Zm0 8.2 1.8-1v4l-1.8 1v-4Zm-4.6-46.6 1.8-1.1v4.1l-1.8 1v-4Zm0 8.2 1.8-1v4l-1.8 1v-4Zm0 8.2 1.8-1v4l-1.8 1v-4Zm0 8.2 1.8-1v4l-1.8 1v-4Zm0 8.2 1.8-1v4l-1.8 1v-4Zm0 8.2 1.8-1v4l-1.8 1v-4Zm0 8.2 1.8-1v4l-1.8 1v-4Zm-4.5-46.6 1.8-1v4l-1.8 1v-4Zm0 8.2 1.8-1v4l-1.8 1v-4Zm0 8.2 1.8-1v4l-1.8 1v-4Zm0 8.2 1.8-1v4l-1.8 1v-4Zm0 8.2 1.8-1v4l-1.8 1v-4Zm0 8.2 1.8-1v4l-1.8 1v-4Zm0 8.2 1.8-1v4l-1.8 1.1v-4.1Zm-4.5-46.6 1.8-1v4l-1.8 1v-4Zm0 8.2 1.8-1v4l-1.8 1v-4Zm0 8.2 1.8-1v4l-1.8 1v-4Zm0 8.2 1.8-1v4l-1.8 1v-4Zm0 8.2 1.8-1v4l-1.8 1v-4Zm0 8.2 1.8-1v4l-1.8 1.1v-4.1Zm0 8.2 1.8-1v4l-1.8 1.1v-4.1Z"/>
  <path fill="#2E0E36" d="m473.3 252.275-1.8-1.1v4.1l1.8 1v-4Zm0 8.2-1.8-1.1v4.1l1.8 1v-4Zm0 8.2-1.8-1v4l1.8 1v-4Zm0 8.2-1.8-1v4l1.8 1v-4Zm0 8.2-1.8-1v4l1.8 1v-4Zm0 8.2-1.8-1v4l1.8 1v-4Zm0 8.2-1.8-1v4l1.8 1v-4Zm4.5-46.6-1.8-1.1v4.1l1.8 1v-4Zm0 8.2-1.8-1v4l1.8 1v-4Zm0 8.2-1.8-1v4l1.8 1v-4Zm0 8.2-1.8-1v4l1.8 1v-4Zm0 8.2-1.8-1v4l1.8 1v-4Zm0 8.2-1.8-1v4l1.8 1v-4Zm0 8.2-1.8-1v4l1.8 1v-4Zm4.5-46.6-1.8-1v4l1.8 1v-4Zm0 8.2-1.8-1v4l1.8 1v-4Zm0 8.2-1.8-1v4l1.8 1v-4Zm0 8.2-1.8-1v4l1.8 1v-4Zm0 8.2-1.8-1v4l1.8 1v-4Zm0 8.2-1.8-1v4l1.8 1v-4Zm0 8.2-1.8-1v4l1.8 1.1v-4.1Zm4.5-46.6-1.8-1v4l1.8 1v-4Zm0 8.2-1.8-1v4l1.8 1v-4Zm0 8.2-1.8-1v4l1.8 1v-4Zm0 8.2-1.8-1v4l1.8 1v-4Zm0 8.2-1.8-1v4l1.8 1v-4Zm0 8.2-1.8-1v4l1.8 1.1v-4.1Zm0 8.2-1.8-1v4l1.8 1.1v-4.1Z"/>
  <path fill="#BAC2FF" d="m375.1 380.375-18.9 10.9-18.9 10.9 34.8 20.1h34.8l18.9-24.9-28.5-19.2-22.2 2.2Z"/>
  <path fill="#501D92" stroke="#2E0E36" stroke-linecap="round" stroke-linejoin="round" stroke-miterlimit="10" d="M406.9 262.575v159.7l-9.6-5.6v-58l-7.4-4.3v58.1l-17.8-10.3v-72.6l17.8-76.8 17 9.8Z"/>
  <path fill="#2E0E36" stroke="#2E0E36" stroke-linecap="round" stroke-linejoin="round" stroke-miterlimit="10" d="M397.3 358.675v49.5l-7.4 4.3v-58.1l7.4 4.3Z"/>
  <path fill="#fff" stroke="#2E0E36" stroke-linecap="round" stroke-linejoin="round" stroke-miterlimit="10" d="M444.6 313.375v87.1l-18.8 10.9-18.9 10.9v-159.7l25.2-14.5 12.5 65.3Z"/>
  <path fill="#fff" stroke="#2E0E36" stroke-linecap="round" stroke-linejoin="round" stroke-miterlimit="10" d="m432.1 248.075-25.2 14.5-17-9.8 25.2-14.6 17 9.9Z"/>
  <path fill="#fff" stroke="#2E0E36" stroke-linecap="round" stroke-linejoin="round" stroke-miterlimit="10" d="m428.5 246.075-20.9 12.1-14.1-8.2 20.9-12.1 14.1 8.2Z"/>
  <path fill="#501D92" stroke="#2E0E36" stroke-linecap="round" stroke-linejoin="round" stroke-miterlimit="10" d="m406.9 302.675-21.2-12.2-1.5 6.8 22.7 13.1v-7.7Z"/>
  <path fill="#fff" stroke="#2E0E36" stroke-linecap="round" stroke-linejoin="round" stroke-miterlimit="10" d="M406.9 302.675v7.7l15.7-9.1v-7.6l-15.7 9Zm26.6-15.3-10.9 6.3v7.6l12.3-7.1-1.4-6.8Z"/>
  <path fill="#501D92" stroke="#2E0E36" stroke-linecap="round" stroke-linejoin="round" stroke-miterlimit="10" d="m406.9 288.875-18.4-10.7-1.5 6.8 19.9 11.5v-7.6Z"/>
  <path fill="#fff" stroke="#2E0E36" stroke-linecap="round" stroke-linejoin="round" stroke-miterlimit="10" d="M406.9 288.875v7.6l15.7-9v-7.7l-15.7 9.1Zm24.1-14-8.4 4.9v7.7l9.8-5.7-1.4-6.9Z"/>
  <path fill="#501D92" stroke="#2E0E36" stroke-linecap="round" stroke-linejoin="round" stroke-miterlimit="10" d="m406.9 316.575-23.9-13.8-1.5 6.8 25.4 14.7v-7.7Z"/>
  <path fill="#fff" stroke="#2E0E36" stroke-linecap="round" stroke-linejoin="round" stroke-miterlimit="10" d="m436.1 299.775-13.5 7.7v7.7l14.9-8.5-1.4-6.9Zm-29.2 16.8v7.7l15.7-9.1v-7.7l-15.7 9.1Zm0-54 .7-4.4 20.9-12.1 3.6 2-25.2 14.5Z"/>
  <path fill="#BAC2FF" stroke="#2E0E36" stroke-linecap="round" stroke-linejoin="round" stroke-miterlimit="10" d="m407.6 258.175-14.1-8.2-3.6 2.8 17 9.8.7-4.4Z"/>
  <path fill="#fff" d="M391.4 191.875c-2.5 0-4.8.7-6.7 2-2.2-1.2-4.8-1.2-6.9 0l-3.5 2c-1.1.6-2 1.5-2.6 2.6-.6 1.1-.9 2.3-.9 3.5 0 2.5 1.3 4.8 3.5 6.1l10.3 5.9c1.9 1.3 4.3 2.1 6.8 2.1 6.7 0 12.2-5.4 12.2-12.2 0-6.8-5.5-12-12.2-12Z"/>
  <path fill="#BAC2FF" d="M402.8 208.375c-1.7 4.6-6.2 7.8-11.4 7.8-2.5 0-4.9-.8-6.8-2.1l-10.3-6c-2.2-1.2-3.5-3.6-3.5-6.1 0-1.3.3-2.5.9-3.5.3-.6.8-1.1 1.3-1.6-.1.6-.2 1.1-.2 1.7 0 2.5 1.3 4.8 3.5 6.1l10.3 6c1.9 1.3 4.3 2.1 6.8 2.1 3.8 0 7.2-1.7 9.4-4.4Z"/>
  <path stroke="#2E0E36" stroke-linecap="round" stroke-linejoin="round" stroke-miterlimit="10" d="M384.7 193.875c-2.2-1.2-4.8-1.2-6.9 0l-3.5 2c-1.1.6-2 1.5-2.6 2.6-.6 1.1-.9 2.3-.9 3.5 0 2.5 1.3 4.8 3.5 6.1l10.3 5.9.2.1-.2-.1c2 1.3 4.3 2.1 6.9 2.1 6.7 0 12.2-5.4 12.2-12.2 0-6.7-5.4-12.2-12.2-12.2-6.8 0-12.2 5.4-12.2 12.2"/>
  <path fill="#fff" d="M558.9 74.575c-2.5 0-4.8.7-6.7 2-2.2-1.2-4.8-1.2-6.9 0l-3.5 2c-1.1.6-2 1.5-2.6 2.6-.6 1.1-.9 2.3-.9 3.5 0 2.5 1.3 4.8 3.5 6.1l10.3 5.9c1.9 1.3 4.3 2.1 6.8 2.1 6.7 0 12.2-5.4 12.2-12.2 0-6.5-5.5-12-12.2-12Z"/>
  <path fill="#BAC2FF" d="M570.3 91.175c-1.7 4.6-6.2 7.8-11.4 7.8-2.5 0-4.9-.8-6.8-2.1l-10.3-6c-2.2-1.2-3.5-3.6-3.5-6.1 0-1.3.3-2.5.9-3.5.3-.6.8-1.1 1.3-1.6-.1.6-.2 1.1-.2 1.7 0 2.5 1.3 4.8 3.5 6.1l10.3 6c1.9 1.3 4.3 2.1 6.8 2.1 3.8-.1 7.1-1.8 9.4-4.4Z"/>
  <path stroke="#2E0E36" stroke-linecap="round" stroke-linejoin="round" stroke-miterlimit="10" d="M552.2 76.575c-2.2-1.2-4.8-1.2-6.9 0l-3.5 2c-1.1.6-2 1.5-2.6 2.6-.6 1.1-.9 2.3-.9 3.5 0 2.5 1.3 4.8 3.5 6.1l10.3 5.9.2.1-.2-.1c2 1.3 4.3 2.1 6.9 2.1 6.7 0 12.2-5.4 12.2-12.2 0-6.7-5.4-12.2-12.2-12.2-6.7 0-12.2 5.4-12.2 12.2"/>
  <path fill="#fff" d="M170.5 35.175c-2.5 0-4.8.7-6.7 2-2.2-1.2-4.8-1.2-6.9 0l-3.5 2c-1.1.6-2 1.5-2.6 2.6-.6 1.1-.9 2.3-.9 3.5 0 2.5 1.3 4.8 3.5 6.1l10.3 5.9c1.9 1.3 4.3 2.1 6.8 2.1 6.7 0 12.2-5.4 12.2-12.2 0-6.5-5.5-12-12.2-12Z"/>
  <path fill="#BAC2FF" d="M181.9 51.675c-1.7 4.6-6.2 7.8-11.4 7.8-2.5 0-4.9-.8-6.8-2.1l-10.3-6c-2.2-1.2-3.5-3.6-3.5-6.1 0-1.3.3-2.5.9-3.5.3-.6.8-1.1 1.3-1.6-.1.6-.2 1.1-.2 1.7 0 2.5 1.3 4.8 3.5 6.1l10.3 6c1.9 1.3 4.3 2.1 6.8 2.1 3.8 0 7.1-1.7 9.4-4.4Z"/>
  <path stroke="#2E0E36" stroke-linecap="round" stroke-linejoin="round" stroke-miterlimit="10" d="M163.8 37.175c-2.2-1.2-4.8-1.2-6.9 0l-3.5 2c-1.1.6-2 1.5-2.6 2.6-.6 1.1-.9 2.3-.9 3.5 0 2.5 1.3 4.8 3.5 6.1l10.3 5.9.2.1-.2-.1c2 1.3 4.3 2.1 6.9 2.1 6.7 0 12.2-5.4 12.2-12.2 0-6.8-5.4-12.2-12.2-12.2-6.8 0-12.2 5.4-12.2 12.2"/>
  <path fill="#fff" d="M154.4 1.475c-2.5 0-4.8.7-6.7 2-2.2-1.2-4.8-1.2-6.9 0l-3.5 2c-1.1.6-2 1.5-2.6 2.6-.6 1.1-.9 2.3-.9 3.5 0 2.5 1.3 4.8 3.5 6.1l10.3 5.9c1.9 1.3 4.3 2.1 6.8 2.1 6.7 0 12.2-5.4 12.2-12.2 0-6.6-5.4-12-12.2-12Z"/>
  <path fill="#BAC2FF" d="M165.8 17.975c-1.7 4.6-6.2 7.8-11.4 7.8-2.5 0-4.9-.8-6.8-2.1l-10.3-6c-2.2-1.2-3.5-3.6-3.5-6.1 0-1.3.3-2.5.9-3.5.3-.6.8-1.1 1.3-1.6-.1.6-.2 1.1-.2 1.7 0 2.5 1.3 4.8 3.5 6.1l10.3 6c1.9 1.3 4.3 2.1 6.8 2.1 3.8 0 7.2-1.7 9.4-4.4Z"/>
  <path stroke="#2E0E36" stroke-linecap="round" stroke-linejoin="round" stroke-miterlimit="10" d="M147.7 3.475c-2.2-1.2-4.8-1.2-6.9 0l-3.5 2c-1.1.6-2 1.5-2.6 2.6-.6 1.1-.9 2.3-.9 3.5 0 2.5 1.3 4.8 3.5 6.1l10.3 5.9.2.1-.2-.1c2 1.3 4.3 2.1 6.9 2.1 6.7 0 12.2-5.4 12.2-12.2 0-6.7-5.4-12.2-12.2-12.2-6.8 0-12.2 5.4-12.2 12.2"/>
  <path fill="#BAC2FF" d="M428.6 71.575c-14.3-8.3-37.4-8.3-51.6 0-14.2 8.3-14.1 21.6.2 29.9 14.3 8.3 37.4 8.3 51.6 0 14.2-8.2 14.1-21.6-.2-29.9Z"/>
  <path fill="#501D92" stroke="#2E0E36" stroke-linecap="round" stroke-linejoin="round" stroke-miterlimit="10" d="M397 71.575c-.6.3-1.2.7-1.7 1.1h-8.9v13.8c0 5.4 3.6 10.8 10.8 15 10.1 5.8 24.6 7.5 37.3 5.1v-40.1c-12.8-2.4-27.4-.7-37.5 5.1Z"/>
  <path fill="#fff" stroke="#2E0E36" stroke-linecap="round" stroke-linejoin="round" stroke-miterlimit="10" d="M450.4 72.675c-.6-.4-1.1-.7-1.7-1.1-4.1-2.4-9-4.1-14.2-5.1v40.1c5.2-1 10.2-2.7 14.3-5.1 7.1-4.1 10.6-9.5 10.6-14.9v-13.9h-9Z"/>
  <path fill="#fff" stroke="#2E0E36" stroke-linecap="round" stroke-linejoin="round" stroke-miterlimit="10" d="M448.6 57.875c-14.3-8.3-37.4-8.3-51.6 0-14.2 8.3-14.1 21.6.2 29.9 14.3 8.3 37.4 8.3 51.6 0 14.2-8.3 14.1-21.7-.2-29.9Z"/>
  <path fill="#fff" stroke="#2E0E36" stroke-linecap="round" stroke-linejoin="round" stroke-miterlimit="10" d="M447.1 54.975c-13.5-7.8-35.2-7.8-48.6 0-13.4 7.8-13.3 20.4.2 28.1 13.4 7.8 35.2 7.8 48.5 0 13.3-7.8 13.3-20.3-.1-28.1Zm13.9 38.3c0 2.3-1.6 5.2-3.7 6.4-1 .6-1.9.6-2.6.3-.7-.4-1.1-1.2-1.1-2.4 0-2.3 1.7-5.2 3.7-6.4.9-.5 1.8-.6 2.4-.4l.2.1c.7.4 1.1 1.2 1.1 2.4Z"/>
  <path fill="#fff" stroke="#2E0E36" stroke-linecap="round" stroke-linejoin="round" stroke-miterlimit="10" d="M459.7 90.775c-.6-.3-1.5-.2-2.4.4-2 1.2-3.7 4-3.7 6.4 0 1.2.4 2 1.1 2.4l-4.6-2.6-.1-.1c-.7-.4-1.1-1.2-1.1-2.4 0-2.3 1.6-5.2 3.7-6.4 1-.6 2-.6 2.6-.2l.2.1 4.3 2.4Zm-12.9-21.7-15.6-2-2 1.9v.3l2 1.9 15.6-2.1Zm-32.3-2-15.5 2 15.6 2 2-1.9v-.3l-2.1-1.8Zm11.9 6.8-3.2-1.2h-.5l-3.2 1.2 3.5 9 3.4-9Zm-3.6-18.7-3.4 9 3.2 1.2h.5l3.2-1.2-3.5-9Z"/>
  <path fill="#501D92" stroke="#2E0E36" stroke-linecap="round" stroke-linejoin="round" stroke-miterlimit="10" d="m439.8 59.275-13.4 5-3.2 1.2c1.5 0 3.1.4 4.2 1.1 1.2.7 1.8 1.6 1.9 2.5l2-1.9 8.5-7.9Zm-17.1 13.4c-1.5 0-3.1-.4-4.2-1.1-1.2-.7-1.8-1.6-1.9-2.4l-2 1.9-8.5 7.8 13.4-4.9 3.2-1.3Zm6.5-3.5c-.1.9-.7 1.8-1.8 2.5-1.2.7-2.7 1-4.2 1.1l3.2 1.2 13.5 4.9-8.6-7.8-2.1-1.9Zm-6.6-3.8-3.2-1.2-13.5-5 8.6 7.8 2 1.9c.1-.9.7-1.8 1.8-2.4 1.3-.7 2.8-1.1 4.3-1.1Z"/>
  <path fill="#fff" stroke="#2E0E36" stroke-linecap="round" stroke-linejoin="round" stroke-miterlimit="10" d="M427.4 66.475c-1.2-.7-2.7-1-4.2-1.1h-.5c-1.5 0-3.1.4-4.2 1.1-1.2.7-1.8 1.6-1.8 2.4v.3c.1.9.7 1.8 1.9 2.4 1.2.7 2.7 1 4.2 1.1h.5c1.5 0 3.1-.4 4.2-1.1 1.2-.7 1.8-1.6 1.8-2.5v-.3c-.1-.8-.7-1.7-1.9-2.3Z"/>
  <path fill="#BAC2FF" d="M354.3 421.375c-.2-.3-.7-.6-1.2-.5l-4 .3-7.8-4.8-3.3 2-1-.6-2.5 1.5-.8-.5-7.8 4.8 12.9 3.5.1-.7 4 1.1.2-.9 5.4 1.5 1.1-5.9 4.1-.3c.6.2.8-.1.6-.5Z"/>
  <path fill="#fff" stroke="#2E0E36" stroke-linecap="round" stroke-linejoin="round" stroke-miterlimit="10" d="M353.6 422.175c-.4 0-.8-.4-.8-.8v-9.1h1.6v9.1c0 .4-.4.8-.8.8Z"/>
  <path fill="#501D92" stroke="#2E0E36" stroke-linecap="round" stroke-linejoin="round" stroke-miterlimit="10" d="m353.5 418.075-7.5-4.8 7.5-13.6v18.4Z"/>
  <path fill="#fff" stroke="#2E0E36" stroke-linecap="round" stroke-linejoin="round" stroke-miterlimit="10" d="m353.5 399.675 8.2 13.6-8.2 4.8v-18.4Z"/>
  <path fill="#501D92" stroke="#2E0E36" stroke-linecap="round" stroke-linejoin="round" stroke-miterlimit="10" d="m353.5 412.575-6.1-3.9 6.1-11.3v15.2Z"/>
  <path fill="#fff" stroke="#2E0E36" stroke-linecap="round" stroke-linejoin="round" stroke-miterlimit="10" d="m353.5 397.375 6.9 11.3-6.9 3.9v-15.2Z"/>
  <path fill="#501D92" stroke="#2E0E36" stroke-linecap="round" stroke-linejoin="round" stroke-miterlimit="10" d="m353.6 408.575-5.3-3.4 5.3-9.5v12.9Z"/>
  <path fill="#fff" stroke="#2E0E36" stroke-linecap="round" stroke-linejoin="round" stroke-miterlimit="10" d="m353.6 395.675 5.8 9.5-5.8 3.4v-12.9Z"/>
  <path fill="#BAC2FF" d="M178.5 398.275c-.2-.3-.7-.6-1.2-.5l-4 .3-7.8-4.8-3.3 2-1-.6-2.5 1.5-.8-.5-7.8 4.8 12.9 3.5.1-.7 4 1.1.2-.9 5.4 1.5 1.1-5.9 4.1-.3c.6.1.8-.2.6-.5Z"/>
  <path fill="#fff" stroke="#2E0E36" stroke-linecap="round" stroke-linejoin="round" stroke-miterlimit="10" d="M177.8 398.975c-.4 0-.8-.4-.8-.8v-9.1h1.6v9.1c-.1.5-.4.8-.8.8Z"/>
  <path fill="#501D92" stroke="#2E0E36" stroke-linecap="round" stroke-linejoin="round" stroke-miterlimit="10" d="m177.6 394.875-7.5-4.7 7.5-13.7v18.4Z"/>
  <path fill="#fff" stroke="#2E0E36" stroke-linecap="round" stroke-linejoin="round" stroke-miterlimit="10" d="m177.6 376.475 8.3 13.7-8.3 4.7v-18.4Z"/>
  <path fill="#501D92" stroke="#2E0E36" stroke-linecap="round" stroke-linejoin="round" stroke-miterlimit="10" d="m177.7 389.475-6.2-4 6.2-11.2v15.2Z"/>
  <path fill="#fff" stroke="#2E0E36" stroke-linecap="round" stroke-linejoin="round" stroke-miterlimit="10" d="m177.7 374.275 6.8 11.2-6.8 4v-15.2Z"/>
  <path fill="#501D92" stroke="#2E0E36" stroke-linecap="round" stroke-linejoin="round" stroke-miterlimit="10" d="m177.8 385.375-5.3-3.3 5.3-9.6v12.9Z"/>
  <path fill="#fff" stroke="#2E0E36" stroke-linecap="round" stroke-linejoin="round" stroke-miterlimit="10" d="m177.8 372.475 5.7 9.6-5.7 3.3v-12.9Z"/>
  <path fill="#BAC2FF" d="M336.5 431.775c-.2-.3-.7-.6-1.2-.5l-4 .3-7.8-4.8-3.3 2-1-.6-2.5 1.5-.8-.5-7.8 4.8 12.9 3.5.1-.7 4 1.1.2-.9 5.4 1.5 1.1-5.9 4.1-.3c.5.2.8-.1.6-.5Z"/>
  <path fill="#fff" stroke="#2E0E36" stroke-linecap="round" stroke-linejoin="round" stroke-miterlimit="10" d="M335.7 432.575c-.4 0-.8-.4-.8-.8v-9.1h1.6v9.1c0 .4-.3.8-.8.8Z"/>
  <path fill="#501D92" stroke="#2E0E36" stroke-linecap="round" stroke-linejoin="round" stroke-miterlimit="10" d="m335.6 428.475-7.5-4.8 7.5-13.6v18.4Z"/>
  <path fill="#fff" stroke="#2E0E36" stroke-linecap="round" stroke-linejoin="round" stroke-miterlimit="10" d="m335.6 410.075 8.3 13.6-8.3 4.8v-18.4Z"/>
  <path fill="#501D92" stroke="#2E0E36" stroke-linecap="round" stroke-linejoin="round" stroke-miterlimit="10" d="m335.7 422.975-6.2-3.9 6.2-11.3v15.2Z"/>
  <path fill="#fff" stroke="#2E0E36" stroke-linecap="round" stroke-linejoin="round" stroke-miterlimit="10" d="m335.7 407.775 6.8 11.3-6.8 3.9v-15.2Z"/>
  <path fill="#501D92" stroke="#2E0E36" stroke-linecap="round" stroke-linejoin="round" stroke-miterlimit="10" d="m335.7 418.975-5.2-3.4 5.2-9.5v12.9Z"/>
  <path fill="#fff" stroke="#2E0E36" stroke-linecap="round" stroke-linejoin="round" stroke-miterlimit="10" d="m335.7 406.075 5.8 9.5-5.8 3.4v-12.9Z"/>
  <path fill="#BAC2FF" d="M472 143.475c-.2-.3-.7-.6-1.2-.5l-4 .3-7.8-4.8-3.3 2-1-.6-2.5 1.5-.8-.5-7.8 4.8 12.9 3.5.1-.7 4 1.1.2-.9 5.4 1.5 1.1-5.9 4.1-.3c.6.2.8-.1.6-.5Z"/>
  <path fill="#fff" stroke="#2E0E36" stroke-linecap="round" stroke-linejoin="round" stroke-miterlimit="10" d="M471.3 144.275c-.4 0-.8-.4-.8-.8v-9.1h1.6v9.1c0 .4-.4.8-.8.8Z"/>
  <path fill="#501D92" stroke="#2E0E36" stroke-linecap="round" stroke-linejoin="round" stroke-miterlimit="10" d="m471.2 140.175-7.5-4.8 7.5-13.6v18.4Z"/>
  <path fill="#fff" stroke="#2E0E36" stroke-linecap="round" stroke-linejoin="round" stroke-miterlimit="10" d="m471.2 121.775 8.2 13.6-8.2 4.8v-18.4Z"/>
  <path fill="#501D92" stroke="#2E0E36" stroke-linecap="round" stroke-linejoin="round" stroke-miterlimit="10" d="m471.2 134.675-6.2-3.9 6.2-11.3v15.2Z"/>
  <path fill="#fff" stroke="#2E0E36" stroke-linecap="round" stroke-linejoin="round" stroke-miterlimit="10" d="m471.2 119.475 6.8 11.3-6.8 3.9v-15.2Z"/>
  <path fill="#501D92" stroke="#2E0E36" stroke-linecap="round" stroke-linejoin="round" stroke-miterlimit="10" d="m471.3 130.675-5.3-3.3 5.3-9.6v12.9Z"/>
  <path fill="#fff" stroke="#2E0E36" stroke-linecap="round" stroke-linejoin="round" stroke-miterlimit="10" d="m471.3 117.775 5.8 9.6-5.8 3.3v-12.9Z"/>
  <path fill="#BAC2FF" d="M604.3 140.375c-.2-.3-.7-.6-1.2-.5l-4 .3-7.8-4.8-3.3 2-1-.6-2.5 1.5-.8-.5-7.8 4.8 12.9 3.5.1-.7 4 1.1.2-.9 5.4 1.5 1.1-5.9 4.1-.3c.6.1.8-.2.6-.5Z"/>
  <path fill="#fff" stroke="#2E0E36" stroke-linecap="round" stroke-linejoin="round" stroke-miterlimit="10" d="M603.6 141.075c-.4 0-.8-.4-.8-.8v-9.1h1.6v9.1c0 .5-.4.8-.8.8Z"/>
  <path fill="#501D92" stroke="#2E0E36" stroke-linecap="round" stroke-linejoin="round" stroke-miterlimit="10" d="m603.5 136.975-7.5-4.7 7.5-13.6v18.3Z"/>
  <path fill="#fff" stroke="#2E0E36" stroke-linecap="round" stroke-linejoin="round" stroke-miterlimit="10" d="m603.5 118.675 8.2 13.6-8.2 4.7v-18.3Z"/>
  <path fill="#501D92" stroke="#2E0E36" stroke-linecap="round" stroke-linejoin="round" stroke-miterlimit="10" d="m603.5 131.575-6.2-3.9 6.2-11.3v15.2Z"/>
  <path fill="#fff" stroke="#2E0E36" stroke-linecap="round" stroke-linejoin="round" stroke-miterlimit="10" d="m603.5 116.375 6.9 11.3-6.9 3.9v-15.2Z"/>
  <path fill="#501D92" stroke="#2E0E36" stroke-linecap="round" stroke-linejoin="round" stroke-miterlimit="10" d="m603.6 127.575-5.3-3.4 5.3-9.6v13Z"/>
  <path fill="#fff" stroke="#2E0E36" stroke-linecap="round" stroke-linejoin="round" stroke-miterlimit="10" d="m603.6 114.575 5.8 9.6-5.8 3.4v-13Z"/>
  <path fill="#BAC2FF" d="M454.1 153.875c-.2-.3-.7-.6-1.2-.5l-4 .3-7.8-4.8-3.3 2-1-.6-2.5 1.5-.8-.5-7.8 4.8 12.9 3.5.1-.7 4 1.1.2-.9 5.4 1.5 1.1-5.9 4.1-.3c.6.2.8-.1.6-.5Z"/>
  <path fill="#fff" stroke="#2E0E36" stroke-linecap="round" stroke-linejoin="round" stroke-miterlimit="10" d="M453.4 154.675c-.4 0-.8-.4-.8-.8v-9.1h1.6v9.1c0 .4-.3.8-.8.8Z"/>
  <path fill="#501D92" stroke="#2E0E36" stroke-linecap="round" stroke-linejoin="round" stroke-miterlimit="10" d="m453.3 150.575-7.5-4.8 7.5-13.6v18.4Z"/>
  <path fill="#fff" stroke="#2E0E36" stroke-linecap="round" stroke-linejoin="round" stroke-miterlimit="10" d="m453.3 132.175 8.3 13.6-8.3 4.8v-18.4Z"/>
  <path fill="#501D92" stroke="#2E0E36" stroke-linecap="round" stroke-linejoin="round" stroke-miterlimit="10" d="m453.4 145.075-6.2-3.9 6.2-11.3v15.2Z"/>
  <path fill="#fff" stroke="#2E0E36" stroke-linecap="round" stroke-linejoin="round" stroke-miterlimit="10" d="m453.4 129.875 6.8 11.3-6.8 3.9v-15.2Z"/>
  <path fill="#501D92" stroke="#2E0E36" stroke-linecap="round" stroke-linejoin="round" stroke-miterlimit="10" d="m453.4 141.075-5.2-3.3 5.2-9.6v12.9Z"/>
  <path fill="#fff" stroke="#2E0E36" stroke-linecap="round" stroke-linejoin="round" stroke-miterlimit="10" d="m453.4 128.175 5.8 9.6-5.8 3.3v-12.9Z"/>
  <path fill="#BAC2FF" d="m345 393.275-2.4.2c-.7 0-1.4-.1-2-.5l-2.7-1.8c-.6-.4-.9-1.1-.8-1.9.1-.7.5-1.3 1.1-1.7l9.3-5.6c.1 0-2.1 10.2-2.5 11.3Z"/>
  <path fill="#2E0E36" d="M345.5 391.775c0 .3.1.6.3.7l.7.4.2-.4c-.1-.1-.2-.3-.2-.5 0-.5.3-1 .8-1.3.2-.1.4-.1.5 0l.2-.4-.6-.4c-.2-.1-.5-.1-.8.1-.6.3-1.1 1.1-1.1 1.8Z"/>
  <path fill="#2E0E36" d="M346.2 392.175c0 .3.1.6.3.7.2.1.5.1.8-.1.6-.3 1.1-1.2 1.1-1.9 0-.3-.1-.6-.3-.7-.2-.1-.4-.1-.7.1-.7.4-1.2 1.2-1.2 1.9Zm.5.3c-.1-.1-.2-.3-.2-.5 0-.5.3-1 .8-1.3.2-.1.4-.1.5 0 .1.1.2.2.2.5 0 .5-.3 1-.8 1.3-.1.1-.3.1-.5 0Z"/>
  <path fill="#501D92" d="M347.2 391.975c.2-.1.4-.4.4-.6 0-.2-.2-.3-.4-.2-.2.1-.4.4-.4.6.1.2.2.3.4.2Z"/>
  <path fill="#2E0E36" d="M354.9 386.375c0 .3.1.6.3.7l.7.4.2-.4c-.1-.1-.2-.3-.2-.5 0-.5.3-1 .8-1.3.2-.1.4-.1.5 0l.2-.4-.7-.4c-.2-.1-.5-.1-.8.1-.5.2-1 1.1-1 1.8Z"/>
  <path fill="#2E0E36" d="M355.6 386.675c0 .3.1.6.3.7.2.1.5.1.8-.1.6-.3 1.1-1.2 1.1-1.9 0-.3-.1-.6-.3-.7-.2-.1-.5-.1-.8.1-.6.4-1.1 1.3-1.1 1.9Zm.5.3c-.1-.1-.2-.3-.2-.5 0-.5.3-1 .8-1.3.2-.1.4-.1.5 0 .1.1.2.3.2.5 0 .5-.3 1-.8 1.3-.1.1-.3.1-.5 0Z"/>
  <path fill="#501D92" d="M356.6 386.475c.2-.1.4-.4.4-.6 0-.2-.2-.3-.4-.2-.2.1-.4.4-.4.6.1.3.2.4.4.2Z"/>
  <path fill="#2E0E36" d="M339.4 389.375v.7c0 .2 0 .4.2.6.3.4.8.9 1.5 1.4 2.5 1.5 4 1.3 4.8.7 0-1.1.4-2.2 1.4-2.7 1-.6 1.4.1 1.4 1.1l6.7-3.8c0-1.1.4-2.2 1.4-2.8 1-.6 1.4.1 1.4 1.2.3-.2 1.2-.9 1.3-1.1.1-.1.1-.3.1-.4v-1.8c0-.2-.1-.4-.1-.5 0-.1-.1-.1-.1-.2-.1-.1-.2-.2-.3-.2-.6-.4-3.2-1.8-3.8-2.2-.3-.1-.4-.1-.4-.1l-1 .3s-2-.1-2.6-.2c-.1 0-.2 0-.4.1-1.3.6-3.9 2.1-4.1 2.3-.5.4-1.3 1.2-1.8 1.6-1.3 1.1-2 1.7-3.4 2.7-.5.3-1.2.9-1.5 1.5-.5.4-.6 1.2-.7 1.8Z"/>
  <path fill="#501D92" d="M342.9 390.575c-.1.2-.5.5-.7.6h-.2c-.6-.3-1.6-.9-1.9-1.3v-.1c0-.2.1-.8.2-.9.3.3 1 1 2.6 1.7.1-.1 0-.1 0 0Z"/>
  <path fill="#fff" d="m354 379.675 3.7 2.1c.2.2-2.1-.2-2.1-.2-.1 0-.4-.2-.5-.2-1.3-.8-2.6-1.5-3.5-1.9l2.1.2c.1-.1.2-.1.3 0Zm-14.2 8.1c0 .1 0 .2.1.2 0 .1.1.2.1.3 0 .1 0 1-.1 1.1h-.1c-.1-.1-.2-.3-.2-.5-.1-.3 0-.7.2-1.1Zm4.5 4h.5c.3 0 .5-.4.5-.7 0-.2-.2-.4-.4-.4h-1.3c-.2 0-.8.4-.9.6v.1c0 .1.2.1.3.2.2.1.7.2 1.3.2Z"/>
  <path fill="#501D92" d="m351.5 386.575.6-.3.1-.1v-.1h-.1l-.6.3-.1.1.1.1Zm3.5-2 .6-.3.1-.1v-.1h-.1l-.6.3-.1.1.1.1s-.1 0 0 0Z"/>
  <path fill="#fff" d="M344 384.775c1.2 1.1 2.3 1.8 3.6 2.2h.4c.2 0 .4-.2.7-.4.4-.5 1.3-1.6 1.7-2.3v-.1s0-.1-.1-.1c-1.5-.7-2.6-1.3-3.3-1.9h-.2l-2.7 2.3c-.1 0-.1.1-.1.3-.1-.2-.1-.1 0 0Z"/>
  <path fill="#BAC2FF" d="m138.3 374.875-12.6 7.3-16.5-.3-12.6-7.2 12.6-7.3h19.1l2.6-.9 7.4 8.4Z"/>
  <path fill="#fff" stroke="#2E0E36" stroke-linecap="round" stroke-linejoin="round" stroke-miterlimit="10" d="m125.7 382.175 12.6-7.3v-23.9l-12.6 7.3v23.9Zm0-38.4-12.6 7.2 12.6 7.3 12.6-7.3-12.6-7.2Z"/>
  <path fill="#501D92" stroke="#2E0E36" stroke-linecap="round" stroke-linejoin="round" stroke-miterlimit="10" d="M113.1 350.975v23.9l12.6 7.3v-23.9l-12.6-7.3Z"/>
  <path fill="#BAC2FF" d="m298.1 431.975-12.6 7.3-16.6-.3-12.5-7.2 12.5-7.3h19.2l2.6-.9 7.4 8.4Z"/>
  <path fill="#fff" stroke="#2E0E36" stroke-linecap="round" stroke-linejoin="round" stroke-miterlimit="10" d="m285.5 439.275 12.6-7.3v-43.9l-12.6 7.3v43.9Z"/>
  <path fill="#fff" stroke="#2E0E36" stroke-linecap="round" stroke-linejoin="round" stroke-miterlimit="10" d="m285.5 380.875-12.6 7.2 12.6 7.3 12.6-7.3-12.6-7.2Z"/>
  <path fill="#501D92" stroke="#2E0E36" stroke-linecap="round" stroke-linejoin="round" stroke-miterlimit="10" d="M272.9 388.075v43.9l12.6 7.3v-43.9l-12.6-7.3Z"/>
  <path fill="#BAC2FF" d="M38.8 270.275c-.2-.3-.7-.6-1.2-.5l-4 .3-7.8-4.8-3.3 2-1-.6-2.5 1.5-.8-.5-7.8 4.8 12.9 3.5.1-.7 4 1.1.2-.9 5.4 1.5 1.1-5.9 4.1-.3c.6.2.8-.1.6-.5Z"/>
  <path fill="#fff" stroke="#2E0E36" stroke-linecap="round" stroke-linejoin="round" stroke-miterlimit="10" d="M38.1 271.075c-.4 0-.8-.4-.8-.8v-9.1h1.6v9.1c0 .4-.4.8-.8.8Z"/>
  <path fill="#501D92" stroke="#2E0E36" stroke-linecap="round" stroke-linejoin="round" stroke-miterlimit="10" d="m38 266.975-7.5-4.8 7.5-13.6v18.4Z"/>
  <path fill="#fff" stroke="#2E0E36" stroke-linecap="round" stroke-linejoin="round" stroke-miterlimit="10" d="m38 248.575 8.2 13.6-8.2 4.8v-18.4Z"/>
  <path fill="#501D92" stroke="#2E0E36" stroke-linecap="round" stroke-linejoin="round" stroke-miterlimit="10" d="m38.1 261.475-6.2-3.9 6.2-11.3v15.2Z"/>
  <path fill="#fff" stroke="#2E0E36" stroke-linecap="round" stroke-linejoin="round" stroke-miterlimit="10" d="m38.1 246.275 6.8 11.3-6.8 3.9v-15.2Z"/>
  <path fill="#501D92" stroke="#2E0E36" stroke-linecap="round" stroke-linejoin="round" stroke-miterlimit="10" d="m38.1 257.475-5.3-3.4 5.3-9.5v12.9Z"/>
  <path fill="#fff" stroke="#2E0E36" stroke-linecap="round" stroke-linejoin="round" stroke-miterlimit="10" d="m38.1 244.575 5.8 9.5-5.8 3.4v-12.9Z"/>
  <path fill="#BAC2FF" d="M288.4 91.675c-.2-.3-.7-.6-1.2-.5l-4 .3-7.8-4.8-3.3 2-1-.6-2.5 1.5-.8-.5-7.8 4.8 12.9 3.5.1-.7 4 1.1.2-.9 5.4 1.5 1.1-5.9 4.1-.3c.6.2.8-.1.6-.5Z"/>
  <path fill="#fff" stroke="#2E0E36" stroke-linecap="round" stroke-linejoin="round" stroke-miterlimit="10" d="M287.7 92.475c-.4 0-.8-.4-.8-.8v-9.1h1.6v9.1c0 .4-.4.8-.8.8Z"/>
  <path fill="#501D92" stroke="#2E0E36" stroke-linecap="round" stroke-linejoin="round" stroke-miterlimit="10" d="m287.5 88.375-7.4-4.8 7.4-13.6v18.4Z"/>
  <path fill="#fff" stroke="#2E0E36" stroke-linecap="round" stroke-linejoin="round" stroke-miterlimit="10" d="m287.5 69.975 8.3 13.6-8.3 4.8v-18.4Z"/>
  <path fill="#501D92" stroke="#2E0E36" stroke-linecap="round" stroke-linejoin="round" stroke-miterlimit="10" d="m287.6 82.875-6.2-3.9 6.2-11.3v15.2Z"/>
  <path fill="#fff" stroke="#2E0E36" stroke-linecap="round" stroke-linejoin="round" stroke-miterlimit="10" d="m287.6 67.675 6.8 11.3-6.8 3.9v-15.2Z"/>
  <path fill="#501D92" stroke="#2E0E36" stroke-linecap="round" stroke-linejoin="round" stroke-miterlimit="10" d="m287.7 78.875-5.3-3.4 5.3-9.5v12.9Z"/>
  <path fill="#fff" stroke="#2E0E36" stroke-linecap="round" stroke-linejoin="round" stroke-miterlimit="10" d="m287.7 65.975 5.8 9.5-5.8 3.4v-12.9Z"/>
  <path fill="#BAC2FF" d="M29.4 194.375c-.2-.3-.7-.6-1.2-.5l-4 .3-7.8-4.8-3.3 2-1-.6-2.5 1.5-.8-.5-7.8 4.8 12.9 3.5.1-.7 4 1.1.2-.9 5.4 1.5 1.1-5.9 4.1-.3c.6.1.8-.2.6-.5Z"/>
  <path fill="#fff" stroke="#2E0E36" stroke-linecap="round" stroke-linejoin="round" stroke-miterlimit="10" d="M28.7 195.075c-.4 0-.8-.4-.8-.8v-9.1h1.6v9.1c0 .5-.4.8-.8.8Z"/>
  <path fill="#501D92" stroke="#2E0E36" stroke-linecap="round" stroke-linejoin="round" stroke-miterlimit="10" d="m28.6 190.975-7.5-4.7 7.5-13.7v18.4Z"/>
  <path fill="#fff" stroke="#2E0E36" stroke-linecap="round" stroke-linejoin="round" stroke-miterlimit="10" d="m28.6 172.575 8.2 13.7-8.2 4.7v-18.4Z"/>
  <path fill="#501D92" stroke="#2E0E36" stroke-linecap="round" stroke-linejoin="round" stroke-miterlimit="10" d="m28.7 185.575-6.2-3.9 6.2-11.3v15.2Z"/>
  <path fill="#fff" stroke="#2E0E36" stroke-linecap="round" stroke-linejoin="round" stroke-miterlimit="10" d="m28.7 170.375 6.8 11.3-6.8 3.9v-15.2Z"/>
  <path fill="#501D92" stroke="#2E0E36" stroke-linecap="round" stroke-linejoin="round" stroke-miterlimit="10" d="m28.7 181.575-5.3-3.4 5.3-9.6v13Z"/>
  <path fill="#fff" stroke="#2E0E36" stroke-linecap="round" stroke-linejoin="round" stroke-miterlimit="10" d="m28.7 168.575 5.8 9.6-5.8 3.4v-13Z"/>
  <path fill="#BAC2FF" d="M44.5 204.975c-.2-.3-.7-.6-1.2-.5l-4 .3-7.8-4.8-3.3 2-1-.6-2.5 1.5-.8-.5-7.8 4.8 12.9 3.5.1-.7 4 1.1.2-.9 5.4 1.5 1.1-5.9 4.1-.3c.6.1.8-.2.6-.5Z"/>
  <path fill="#fff" stroke="#2E0E36" stroke-linecap="round" stroke-linejoin="round" stroke-miterlimit="10" d="M43.8 205.675c-.4 0-.8-.4-.8-.8v-9.1h1.6v9.1c0 .4-.4.8-.8.8Z"/>
  <path fill="#501D92" stroke="#2E0E36" stroke-linecap="round" stroke-linejoin="round" stroke-miterlimit="10" d="m43.6 201.575-7.4-4.8 7.4-13.6v18.4Z"/>
  <path fill="#fff" stroke="#2E0E36" stroke-linecap="round" stroke-linejoin="round" stroke-miterlimit="10" d="m43.6 183.175 8.3 13.6-8.3 4.8v-18.4Z"/>
  <path fill="#501D92" stroke="#2E0E36" stroke-linecap="round" stroke-linejoin="round" stroke-miterlimit="10" d="m43.7 196.175-6.2-4 6.2-11.2v15.2Z"/>
  <path fill="#fff" stroke="#2E0E36" stroke-linecap="round" stroke-linejoin="round" stroke-miterlimit="10" d="m43.7 180.975 6.8 11.2-6.8 4v-15.2Z"/>
  <path fill="#501D92" stroke="#2E0E36" stroke-linecap="round" stroke-linejoin="round" stroke-miterlimit="10" d="m43.8 192.075-5.3-3.3 5.3-9.6v12.9Z"/>
  <path fill="#fff" stroke="#2E0E36" stroke-linecap="round" stroke-linejoin="round" stroke-miterlimit="10" d="m43.8 179.175 5.8 9.6-5.8 3.3v-12.9Z"/>
  <path fill="#BAC2FF" d="M28.3 212.675c-.2-.3-.7-.6-1.2-.5l-4 .3-7.8-4.8-3.3 2-1-.6-2.5 1.5-.8-.5-7.7 5 12.9 3.5.1-.7 4 1.1.2-.9 5.4 1.5 1.1-5.9 4.1-.3c.5 0 .7-.3.5-.7Z"/>
  <path fill="#fff" stroke="#2E0E36" stroke-linecap="round" stroke-linejoin="round" stroke-miterlimit="10" d="M27.6 213.475c-.4 0-.8-.4-.8-.8v-9.1h1.6v9.1c0 .4-.4.8-.8.8Z"/>
  <path fill="#501D92" stroke="#2E0E36" stroke-linecap="round" stroke-linejoin="round" stroke-miterlimit="10" d="m27.5 209.375-7.5-4.8 7.5-13.6v18.4Z"/>
  <path fill="#fff" stroke="#2E0E36" stroke-linecap="round" stroke-linejoin="round" stroke-miterlimit="10" d="m27.5 190.975 8.2 13.6-8.2 4.8v-18.4Z"/>
  <path fill="#501D92" stroke="#2E0E36" stroke-linecap="round" stroke-linejoin="round" stroke-miterlimit="10" d="m27.5 203.875-6.1-3.9 6.1-11.3v15.2Z"/>
  <path fill="#fff" stroke="#2E0E36" stroke-linecap="round" stroke-linejoin="round" stroke-miterlimit="10" d="m27.5 188.675 6.9 11.3-6.9 3.9v-15.2Z"/>
  <path fill="#501D92" stroke="#2E0E36" stroke-linecap="round" stroke-linejoin="round" stroke-miterlimit="10" d="m27.6 199.875-5.3-3.4 5.3-9.5v12.9Z"/>
  <path fill="#fff" stroke="#2E0E36" stroke-linecap="round" stroke-linejoin="round" stroke-miterlimit="10" d="m27.6 186.975 5.8 9.5-5.8 3.4v-12.9Z"/>
  <path fill="#BAC2FF" d="m318.1 327.075-42.9-24.8c-2.4-1.4-5.3-1.4-7.7 0l-81.2 46.9c-1.9 1.1-1.9 3.9 0 5l42.9 24.8c1.1.7 2.4 1 3.7 1h10.4l-.7-4.3 75.6-43.7c1.8-1 1.8-3.8-.1-4.9Z"/>
  <path fill="#501D92" stroke="#2E0E36" stroke-linecap="round" stroke-linejoin="round" stroke-miterlimit="10" d="m197.2 348.575-1-.6c-1-.6-1.4-1.5-1.4-2.5v6.1c0 1 .4 2 1.4 2.6l22.4 12.9 20.5 11.8c.8.5 1.6.7 2.5.9v-56.9l-44.4 25.7Z"/>
  <path fill="#fff" stroke="#2E0E36" stroke-linecap="round" stroke-linejoin="round" stroke-miterlimit="10" d="m328 325.875-1 .6-41.9-24.2c-2.4-1.4-5.3-1.4-7.7 0l-35.8 20.7v56.9c1.7.3 3.4 0 5-.8.1 0 .1-.1.2-.1l81.2-46.9c.5-.3.9-.7 1.1-1.1 0-.1 0-.1.1-.2.1-.2.2-.3.2-.5v-6.8c0 .9-.4 1.9-1.4 2.4Z"/>
  <path fill="#fff" stroke="#2E0E36" stroke-linecap="round" stroke-linejoin="round" stroke-miterlimit="10" d="m196.2 347.975 42.9 24.8c2.4 1.4 5.3 1.4 7.7 0l81.2-46.9c1.9-1.1 1.9-3.9 0-5l-42.9-24.8c-2.4-1.4-5.3-1.4-7.7 0l-81.2 46.9c-1.9 1.1-1.9 3.9 0 5Z"/>
  <path fill="#501D92" stroke="#2E0E36" stroke-linecap="round" stroke-linejoin="round" stroke-miterlimit="10" d="m209.5 341.175 69.8-40.3 40.9 23.6-69.8 40.3-40.9-23.6Z"/>
  <path fill="#fff" stroke="#2E0E36" stroke-linecap="round" stroke-linejoin="round" stroke-miterlimit="10" d="M227.2 355.775c0 .6-.4 1.2-1.2 1.6-1.6.9-4.1.9-5.7 0-.8-.5-1.2-1.1-1.2-1.6 0-.6.4-1.2 1.2-1.6 1.6-.9 4.1-.9 5.7 0 .8.4 1.2 1 1.2 1.6Zm-5.1-17.3 1.9-1.1c1.9-1.1 4.2-1.1 6.2 0l25.2 14.6c2.1 1.2 2.1 4.2 0 5.4l-1.9 1.1c-1.9 1.1-4.3 1.1-6.2 0l-25.2-14.6c-2-1.2-2-4.2 0-5.4Z"/>
  <path stroke="#fff" stroke-linecap="round" stroke-linejoin="round" stroke-miterlimit="10" d="m274.8 313.275-20 11.4 8.7 1.1 19.9-11.5-8.6-1Z"/>
  <path stroke="#fff" stroke-linecap="round" stroke-linejoin="round" stroke-miterlimit="10" d="m283.4 314.275 7.6 9.5-20 11.5-7.5-9.5"/>
  <path stroke="#fff" stroke-linecap="round" stroke-linejoin="round" stroke-miterlimit="10" d="m290.5 323.775 10.4-1.1-19.5 11.5-10.4 1.1"/>
  <path fill="#fff" stroke="#2E0E36" stroke-linecap="round" stroke-linejoin="round" stroke-miterlimit="10" d="m268.7 311.275-.1 23c0 1-.3 1.8-.9 2.2l-.4.2-3.2 1.9c.6-.4.9-1.2.9-2.2l.1-23c0-2.3-1.6-5.1-3.6-6.3l-38.6-22.3h-.1c-.9-.5-1.8-.6-2.4-.3l3.4-2 .2-.1c.6-.3 1.5-.2 2.4.3l38.6 22.3c2.1 1.2 3.7 4 3.7 6.3Z"/>
  <path fill="#fff" stroke="#2E0E36" stroke-linecap="round" stroke-linejoin="round" stroke-miterlimit="10" d="m261.5 307.075-38.6-22.3c-2-1.2-3.7-.2-3.7 2.1l-.1 23c0 2.3 1.6 5.1 3.6 6.3l12.6 7.3 2.6 5.6c.2.5.6.8.9 1 .3.2.7.2.9 0l2.6-2.6 19 11c2 1.2 3.7.2 3.7-2.1l.1-23c0-2.3-1.6-5.1-3.6-6.3Z"/>
  <path fill="#501D92" d="M228.9 297.075c-1.5-.9-2.7-.2-2.7 1.5 0 1.3.7 2.8 1.7 3.8-2-.6-3.4.6-3.4 3v3.1l8.8 5.1v-3.1c0-1.4-.5-2.9-1.3-4.3-.6-1-1.3-1.9-2.1-2.6 1 .1 1.7-.6 1.7-1.9-.1-1.6-1.3-3.7-2.7-4.6Z"/>
  <path fill="#fff" stroke="#2E0E36" stroke-linecap="round" stroke-linejoin="round" stroke-miterlimit="10" d="M361.2 373.275v9.5c0 .4-.1.7-.4.9l-.2.1-1.3.8c.2-.2.4-.5.4-.9v-9.5c0-1-.7-2.1-1.5-2.6l-15.9-9.2c-.4-.2-.7-.2-1-.1l1.4-.8.1-.1c.3-.1.6-.1 1 .1l15.9 9.2c.8.5 1.5 1.7 1.5 2.6Z"/>
  <path fill="#501D92" stroke="#2E0E36" stroke-linecap="round" stroke-linejoin="round" stroke-miterlimit="10" d="m358.2 371.575-15.9-9.2c-.8-.5-1.5-.1-1.5.9v9.5c0 1 .7 2.1 1.5 2.6l5.2 3 1.1 2.3c.1.2.2.3.4.4.1.1.3.1.4 0l1.1-1.1 7.8 4.5c.8.5 1.5.1 1.5-.9v-9.5c-.1-.9-.8-2-1.6-2.5Z"/>
  <path stroke="#fff" stroke-linecap="round" stroke-linejoin="round" stroke-miterlimit="10" d="m344.5 368.075 10.8 6.1m-10.8-1.9 6.5 3.7"/>
  <path fill="#fff" stroke="#2E0E36" stroke-linecap="round" stroke-linejoin="round" stroke-miterlimit="10" d="m171.5 151.175-.1 23c0 1-.3 1.8-.9 2.2l-.4.2-3.2 1.9c.6-.4.9-1.2.9-2.2l.1-23c0-2.3-1.6-5.1-3.6-6.3l-38.6-22.3h-.1c-.9-.5-1.8-.6-2.4-.3l3.4-2 .2-.1c.6-.3 1.5-.2 2.4.3l38.6 22.3c2.1 1.2 3.7 4 3.7 6.3Z"/>
  <path fill="#501D92" stroke="#2E0E36" stroke-linecap="round" stroke-linejoin="round" stroke-miterlimit="10" d="m164.3 146.975-38.6-22.3c-2-1.2-3.7-.2-3.7 2.1l-.1 23c0 2.3 1.6 5.1 3.6 6.3l12.6 7.3 2.6 5.6c.2.5.6.8.9 1 .3.2.7.2.9 0l2.6-2.6 19 11c2 1.2 3.7.2 3.7-2.1l.1-23c0-2.4-1.6-5.2-3.6-6.3Z"/>
  <path fill="#fff" d="M131.7 136.975c-1.5-.9-2.7-.2-2.7 1.5 0 1.3.7 2.8 1.7 3.8-2-.6-3.4.6-3.4 3v3.1l8.8 5.1v-3.1c0-1.4-.5-2.9-1.3-4.3-.6-1-1.3-1.9-2.1-2.6 1 .1 1.7-.6 1.7-1.9 0-1.7-1.2-3.7-2.7-4.6Z"/>
  <path fill="#fff" stroke="#2E0E36" stroke-linecap="round" stroke-linejoin="round" stroke-miterlimit="10" d="m540.1 165.075-.1 23c0 1-.3 1.8-.9 2.2l-.4.2-3.2 1.9c.6-.4.9-1.2.9-2.2l.1-23c0-2.3-1.6-5.1-3.6-6.3l-38.6-22.3h-.1c-.9-.5-1.8-.6-2.4-.3l3.4-2 .2-.1c.6-.3 1.5-.2 2.4.3l38.6 22.3c2.1 1.1 3.7 3.9 3.7 6.3Z"/>
  <path fill="#501D92" stroke="#2E0E36" stroke-linecap="round" stroke-linejoin="round" stroke-miterlimit="10" d="m532.9 160.775-38.6-22.3c-2-1.2-3.7-.2-3.7 2.1l-.1 23c0 2.3 1.6 5.1 3.6 6.3l12.6 7.3 2.6 5.6c.2.5.6.8.9 1 .3.2.7.2.9 0l2.6-2.6 19 11c2 1.2 3.7.2 3.7-2.1l.1-23c0-2.3-1.6-5.1-3.6-6.3Z"/>
  <path fill="#fff" d="M500.2 150.875c-1.5-.9-2.7-.2-2.7 1.5 0 1.3.7 2.8 1.7 3.8-2-.6-3.4.6-3.4 3v3.1l8.8 5.1v-3.1c0-1.4-.5-2.9-1.3-4.3-.6-1-1.3-1.9-2.1-2.6 1 .1 1.7-.6 1.7-1.9 0-1.7-1.2-3.8-2.7-4.6Z"/>
  <path fill="#BAC2FF" d="M311.6 358.875c-.2-.3-.7-.6-1.2-.5l-4 .3-7.8-4.8-3.3 2-1-.6-2.5 1.5-.8-.5-7.8 4.8 12.9 3.5.1-.7 4 1.1.2-.9 5.4 1.5 1.1-5.9 4.1-.3c.6.1.8-.2.6-.5Z"/>
  <path fill="#fff" stroke="#2E0E36" stroke-linecap="round" stroke-linejoin="round" stroke-miterlimit="10" d="M310.9 359.575c-.4 0-.8-.4-.8-.8v-9.1h1.6v9.1c0 .5-.3.8-.8.8Z"/>
  <path fill="#501D92" stroke="#2E0E36" stroke-linecap="round" stroke-linejoin="round" stroke-miterlimit="10" d="m310.8 355.575-7.5-4.8 7.5-13.6v18.4Z"/>
  <path fill="#fff" stroke="#2E0E36" stroke-linecap="round" stroke-linejoin="round" stroke-miterlimit="10" d="m310.8 337.175 8.3 13.6-8.3 4.8v-18.4Z"/>
  <path fill="#501D92" stroke="#2E0E36" stroke-linecap="round" stroke-linejoin="round" stroke-miterlimit="10" d="m310.9 350.075-6.2-3.9 6.2-11.3v15.2Z"/>
  <path fill="#fff" stroke="#2E0E36" stroke-linecap="round" stroke-linejoin="round" stroke-miterlimit="10" d="m310.9 334.875 6.8 11.3-6.8 3.9v-15.2Z"/>
  <path fill="#501D92" stroke="#2E0E36" stroke-linecap="round" stroke-linejoin="round" stroke-miterlimit="10" d="m310.9 346.075-5.2-3.4 5.2-9.5v12.9Z"/>
  <path fill="#fff" stroke="#2E0E36" stroke-linecap="round" stroke-linejoin="round" stroke-miterlimit="10" d="m310.9 333.175 5.8 9.5-5.8 3.4v-12.9Z"/>
  <path fill="#BAC2FF" d="M326.7 369.475c-.2-.3-.7-.6-1.2-.5l-4 .3-7.8-4.8-3.3 2-1-.6-2.5 1.5-.8-.5-7.8 4.8 12.9 3.5.1-.7 4 1.1.2-.9 5.4 1.5 1.1-5.9 4.1-.3c.6.1.8-.2.6-.5Z"/>
  <path fill="#fff" stroke="#2E0E36" stroke-linecap="round" stroke-linejoin="round" stroke-miterlimit="10" d="M326 370.175c-.4 0-.8-.4-.8-.8v-9.1h1.6v9.1c0 .5-.4.8-.8.8Z"/>
  <path fill="#501D92" stroke="#2E0E36" stroke-linecap="round" stroke-linejoin="round" stroke-miterlimit="10" d="m325.9 366.075-7.5-4.7 7.5-13.7v18.4Z"/>
  <path fill="#fff" stroke="#2E0E36" stroke-linecap="round" stroke-linejoin="round" stroke-miterlimit="10" d="m325.9 347.675 8.2 13.7-8.2 4.7v-18.4Z"/>
  <path fill="#501D92" stroke="#2E0E36" stroke-linecap="round" stroke-linejoin="round" stroke-miterlimit="10" d="m325.9 360.675-6.2-4 6.2-11.2v15.2Z"/>
  <path fill="#fff" stroke="#2E0E36" stroke-linecap="round" stroke-linejoin="round" stroke-miterlimit="10" d="m325.9 345.475 6.9 11.2-6.9 4v-15.2Z"/>
  <path fill="#501D92" stroke="#2E0E36" stroke-linecap="round" stroke-linejoin="round" stroke-miterlimit="10" d="m326 356.575-5.3-3.3 5.3-9.6v12.9Z"/>
  <path fill="#fff" stroke="#2E0E36" stroke-linecap="round" stroke-linejoin="round" stroke-miterlimit="10" d="m326 343.675 5.8 9.6-5.8 3.3v-12.9Z"/>
  <path fill="#BAC2FF" d="M310.5 377.175c-.2-.3-.7-.6-1.2-.5l-4 .3-7.8-4.8-3.3 2-1-.6-2.5 1.5-.8-.5-7.8 4.8 12.9 3.5.1-.7 4 1.1.2-.9 5.4 1.5 1.1-5.9 4.1-.3c.6.2.8-.1.6-.5Z"/>
  <path fill="#fff" stroke="#2E0E36" stroke-linecap="round" stroke-linejoin="round" stroke-miterlimit="10" d="M309.8 377.975c-.4 0-.8-.4-.8-.8v-9.1h1.6v9.1c0 .4-.4.8-.8.8Z"/>
  <path fill="#501D92" stroke="#2E0E36" stroke-linecap="round" stroke-linejoin="round" stroke-miterlimit="10" d="m309.7 373.875-7.5-4.8 7.5-13.6v18.4Z"/>
  <path fill="#fff" stroke="#2E0E36" stroke-linecap="round" stroke-linejoin="round" stroke-miterlimit="10" d="m309.7 355.475 8.2 13.6-8.2 4.8v-18.4Z"/>
  <path fill="#501D92" stroke="#2E0E36" stroke-linecap="round" stroke-linejoin="round" stroke-miterlimit="10" d="m309.8 368.375-6.2-3.9 6.2-11.3v15.2Z"/>
  <path fill="#fff" stroke="#2E0E36" stroke-linecap="round" stroke-linejoin="round" stroke-miterlimit="10" d="m309.8 353.175 6.8 11.3-6.8 3.9v-15.2Z"/>
  <path fill="#501D92" stroke="#2E0E36" stroke-linecap="round" stroke-linejoin="round" stroke-miterlimit="10" d="m309.8 364.375-5.2-3.4 5.2-9.5v12.9Z"/>
  <path fill="#fff" stroke="#2E0E36" stroke-linecap="round" stroke-linejoin="round" stroke-miterlimit="10" d="m309.8 351.475 5.8 9.5-5.8 3.4v-12.9Z"/>
  <path fill="#BAC2FF" d="M494.4 448.275h33.2l-39.4-39.9H455l-15.3 8.8 38.2 21.6 16.5 9.5Z"/>
  <path stroke="#2E0E36" stroke-linecap="round" stroke-linejoin="round" stroke-miterlimit="10" d="M489 357.975v.1"/>
  <path fill="#501D92" stroke="#2E0E36" stroke-linecap="round" stroke-linejoin="round" stroke-miterlimit="10" d="M532.5 405.675v38.4c0 1.6-.8 2.8-1.9 3.6l-.2.1c-1.2.7-2.8.8-4.2 0l-16.5-9.5-32-18.5c-3.8-2.2-6.2-6.3-6.2-10.8v-38.3c0-1.8 1-3.2 2.4-3.8 1.2-.6 2.7-.6 4 .1l8.9 5.1 39.6 22.9c3.7 2.2 6.1 6.3 6.1 10.7Z"/>
  <path fill="#fff" stroke="#2E0E36" stroke-linecap="round" stroke-linejoin="round" stroke-miterlimit="10" d="M547.7 396.875v38.3c0 1.7-.9 3-2.2 3.7l-.1.1-14.9 8.6c1.1-.7 1.9-2 1.9-3.6v-38.3c0-4.4-2.4-8.5-6.2-10.8l-1.4-.8-6.5-3.7-27-15.6-4.7-2.7-8.9-5.1c-1.3-.8-2.8-.7-4-.1l14.8-8.6.4-.2c1.2-.6 2.7-.7 4.1.1l48.5 28c3.9 2.2 6.2 6.3 6.2 10.7Z"/>
  <path stroke="#2E0E36" stroke-linecap="round" stroke-linejoin="round" stroke-miterlimit="10" d="m499 370.375-7.7 4.4v8.8l-4.7-2.7v-8.8l7.7-4.4 4.7 2.7Zm28.8 16.6-3 1.7-4.7 2.7v8.9l-4.7-2.7v-8.9l7.7-4.4 4.7 2.7Z"/>
  <path fill="#fff" stroke="#2E0E36" stroke-linecap="round" stroke-linejoin="round" stroke-miterlimit="10" d="M527.8 376.475v10.5l-2.9 1.7v-10.5c0-1.1-.1-2.2-.4-3.2-.3-1.3-.9-2.5-1.6-3.6-.3-.4-.6-.9-1-1.3-.2-.2-.3-.4-.5-.6-.6-.6-1.2-1.1-1.9-1.5-.2-.2-.5-.3-.7-.4l-19.3-11.1-1.7-1c-.8-.5-1.7-.6-2.6-.5-.5.1-.9.2-1.3.4l2.3-1.3.7-.4c1.2-.5 2.6-.6 3.9.2l21 12.1c3.6 2 6 6.1 6 10.5Z"/>
  <path fill="#fff" stroke="#2E0E36" stroke-linecap="round" stroke-linejoin="round" stroke-miterlimit="10" d="M497.3 358.675v10.7l-2.9 1.7v-12.4c0-.8.8-1.2 1.5-.9l1.4.9Z"/>
  <path stroke="#2E0E36" stroke-linecap="round" stroke-linejoin="round" stroke-miterlimit="10" d="M524.8 388.675v-10.5c0-4.4-2.3-8.5-6.1-10.6l-21-12.1c-2.8-1.6-6.4.4-6.4 3.7v10.3"/>
  <path fill="#501D92" stroke="#2E0E36" stroke-linecap="round" stroke-linejoin="round" stroke-miterlimit="10" d="M524.8 378.175v10.5l-3-1.8v-9.3c0-3-1.6-5.8-4.2-7.3l-21.7-12.6c-.7-.4-1.5.1-1.5.9v12.5l-3-1.8v-10.2c0-3.3 3.5-5.3 6.4-3.7l21 12.1c3.7 2.2 6 6.3 6 10.7Z"/>
  <path stroke="#fff" stroke-linecap="round" stroke-linejoin="round" stroke-miterlimit="10" d="m517.2 424.975-14.5-8.4-16.1-9.2v-8.8l30.6 17.6v8.8Z"/>
  <path fill="#fff" d="m547.7 416.175-10.3 6c-1.4.8-2.2 2.2-2.2 3.8v19"/>
  <path stroke="#2E0E36" stroke-linecap="round" stroke-linejoin="round" stroke-miterlimit="10" d="m547.7 416.175-10.3 6c-1.4.8-2.2 2.2-2.2 3.8v19m12.5-20-12.5 7.2"/>
  <path stroke="#fff" stroke-linecap="round" stroke-linejoin="round" stroke-miterlimit="10" d="M491.3 401.275v8.8"/>
  <path stroke="#2E0E36" stroke-linecap="round" stroke-linejoin="round" stroke-miterlimit="10" d="m546.1 390.675-15.3 8.8m-335.2-85.6-12.5 7.3 12.5 7.3 12.6-7.3-12.6-7.3Z"/>
  <path fill="#501D92" d="M183.1 321.175v3.9l12.5 7.2v-3.8"/>
  <path stroke="#2E0E36" stroke-linecap="round" stroke-linejoin="round" stroke-miterlimit="10" d="M183.1 321.175v3.9l12.5 7.2v-3.8m12.6-7.3v3.9l-12.6 7.2"/>
  <path fill="#fff" stroke="#2E0E36" stroke-linecap="round" stroke-linejoin="round" stroke-miterlimit="10" d="M349.2 89.275c7.566 0 13.7-6.134 13.7-13.7 0-7.566-6.134-13.7-13.7-13.7-7.566 0-13.7 6.134-13.7 13.7 0 7.566 6.134 13.7 13.7 13.7Z"/>
  <path stroke="#2E0E36" stroke-linecap="round" stroke-linejoin="round" stroke-miterlimit="10" d="M349.2 89.275c3.479 0 6.3-6.134 6.3-13.7 0-7.566-2.821-13.7-6.3-13.7-3.479 0-6.3 6.134-6.3 13.7 0 7.566 2.821 13.7 6.3 13.7Z"/>
  <path stroke="#2E0E36" stroke-linecap="round" stroke-linejoin="round" stroke-miterlimit="10" d="M349.2 81.875c7.566 0 13.7-2.82 13.7-6.3s-6.134-6.3-13.7-6.3c-7.566 0-13.7 2.82-13.7 6.3s6.134 6.3 13.7 6.3Z"/>
</svg>
