<?xml version="1.0" encoding="UTF-8"?>
<svg id="Capa_1" data-name="Capa 1" xmlns="http://www.w3.org/2000/svg" xmlns:xlink="http://www.w3.org/1999/xlink" viewBox="0 0 1080 1080">
  <defs>
    <style>
      .cls-1 {
        fill: url(#Degradado_sin_nombre_7-2);
      }

      .cls-2 {
        fill: url(#Degradado_sin_nombre_7-4);
      }

      .cls-3 {
        fill: url(#Degradado_sin_nombre_7-5);
      }

      .cls-4 {
        fill: url(#Degradado_sin_nombre_7-3);
      }

      .cls-5 {
        fill: url(#Degradado_sin_nombre_7);
      }
    </style>
    <linearGradient id="Degradado_sin_nombre_7" data-name="Degradado sin nombre 7" x1="391.22" y1="566.81" x2="540.37" y2="566.81" gradientUnits="userSpaceOnUse">
      <stop offset="0" stop-color="#600ff5"/>
      <stop offset=".17" stop-color="#5e10eb"/>
      <stop offset=".46" stop-color="#5a13d2"/>
      <stop offset=".82" stop-color="#5319a9"/>
      <stop offset=".99" stop-color="#501d92"/>
    </linearGradient>
    <linearGradient id="Degradado_sin_nombre_7-2" data-name="Degradado sin nombre 7" x1="952.76" y1="687.46" x2="955.25" y2="687.46" xlink:href="#Degradado_sin_nombre_7"/>
    <linearGradient id="Degradado_sin_nombre_7-3" data-name="Degradado sin nombre 7" x1="952.59" y1="687.47" x2="955.25" y2="687.47" xlink:href="#Degradado_sin_nombre_7"/>
    <linearGradient id="Degradado_sin_nombre_7-4" data-name="Degradado sin nombre 7" x1="724.1" y1="828.85" x2="955.25" y2="828.85" xlink:href="#Degradado_sin_nombre_7"/>
    <linearGradient id="Degradado_sin_nombre_7-5" data-name="Degradado sin nombre 7" x1="25.62" y1="540" x2="1054.38" y2="540" xlink:href="#Degradado_sin_nombre_7"/>
  </defs>
  <g id="NCbsaf">
    <path class="cls-5" d="M469.85,568.13c1.87-1.58,4.16-2.88,6.62-3.94,14.44-6.23,79.41-26.88,60.46-52.71-8.69-11.84-25.43-15.44-39.79-12.32-15.12,3.28-27.59,12.99-40.23,21.33-15.08,9.94-30.15,19.88-45.23,29.83-11.72,7.73-20.64,16.48-20.46,31.57.13,10.34,4.42,20.26,10.15,28.87,5.3,7.96,12.01,15.15,20.35,19.82,15.65,8.77,37.6,6.2,47.45-9.92,9.26-15.16.87-24.93-3.41-39.06-1.78-5.88.29-10.25,4.09-13.45Z"/>
  </g>
  <path class="cls-1" d="M955.25,688.81c-.88.03-2.57-1.81-2.49-2.7.85.89,1.69,1.78,2.49,2.7Z"/>
  <path class="cls-4" d="M955.25,688.81c-.88.03-1.78.04-2.66,0,.03-.9.09-1.81.17-2.71.85.89,1.69,1.78,2.49,2.7Z"/>
  <path class="cls-2" d="M952.76,686.11c-.08.89-.13,1.81-.17,2.71.88.03,1.78.03,2.66,0-.8-.93-1.65-1.81-2.49-2.7ZM725.12,970.03c-.26.08-.52.21-.78.31-.09.03-.15.07-.24.11.3.38.63.76.95,1.15.06-.52.07-1.04.07-1.56Z"/>
  <path class="cls-3" d="M1053.69,538.29c-1.9-17.66-7.73-34.75-16.59-50.11-15.07-26.14-38.93-47.31-67.22-57.91,36.36-28.72,52.88-80.26,39.98-124.76-12.89-44.5-54.41-79.23-100.49-84.06-10.68-1.12-22.13-.97-31.12-6.84-15.33-10.02-16.03-31.57-18.63-49.7-6.36-44.38-35.05-84.98-74.76-105.79-39.71-20.81-89.42-21.31-129.53-1.3-22.88,11.41-45.82,29.61-70.87,24.51-15.88-3.23-28.19-15.28-41.36-24.74-35.16-25.24-82.12-33.24-123.66-21.06-41.54,12.17-76.75,44.25-92.72,84.48-8.04,20.23-13.9,45.13-34.08,53.31-16.49,6.68-34.77-1.35-51.92-6.07-104.14-28.64-201.77,73.87-178.12,176.51,2.42,10.5,6.02,21.08,4.76,31.78-2.04,17.35-16.04,30.41-25.7,44.97-19.23,29-21.35,68.5-5.34,99.39,16.01,30.89,49.52,51.92,84.3,52.91-18.23,75.26-87.53,135.17-88.06,212.61-.47,68.07,52.32,123.32,102.02,169.83,17.18,16.08,44.68,21.76,68.16,23.14,27.45,1.62,45.07-7.5,72.25-3.35,25.23,3.85,42.64,27.29,66.04,37.49,34.59,15.08,73.03-.14,108.96,1.86,48.01,2.67,89.97,32.62,138.23,33.66,27.28.59,54.02-6.82,77.44-20.75,11.55-6.87,22.2-15.2,31.93-24.47,10.38-9.89,19.17-29.27,35.37-29.86,6.32-.23,12.48,1.77,18.48,3.77,39.12,13.05,74.52,16.83,114.27,3.73,48.93-16.12,91.7-52.54,109.66-101.58,11.05-30.19,12.33-63.72,4.38-94.82-7.33-28.68-36.42-64.52-20.16-94.73,7.27-13.5,22.38-20.31,35.26-28.62,40.3-26.03,63.99-75.71,58.85-123.41ZM724.1,970.44c.09-.03.15-.07.24-.11.26-.1.52-.23.78-.31,0,.52-.72.8-1.02.42ZM830.44,632.13c-8.13,18.39-22.44,34.31-39.63,44.73-18.24,11.06-39.71,15.91-60.45,10.95-5.08-1.22-10.41-2.97-15.4-1.41-7.95,2.48-11.1,11.8-13.28,19.84-11.27,41.59-27,82.67-52.96,117.06-44.56,59.03-125.14,109.92-196.56,128-44.74,11.32-96.14,6.55-131.02-23.68-2.18-1.89-4.37-3.99-5.3-6.73-1.23-3.63-.02-7.6,1.5-11.12,6.96-16.13,23.32-32.96,41.15-36.68,19.87-4.14,35.07,14.17,55.23,9.92,31.28-6.59,14.76-40.94-5.1-50.82-32.25-16.05-73.83-9.33-100.77,14.57-21.96,19.49-35,48.86-60.56,63.32-17.8,10.07-40.38,11.21-59.1,2.98-18.72-8.23-33.15-25.64-37.76-45.56,18.11.69,36.77-3.38,51.62-13.77,14.85-10.4,25.38-27.58,25.48-45.71.05-10.33-4.84-22.18-14.93-24.41-5.62-1.24-11.41.84-16.66,3.18-23.55,10.5-44.55,26.96-69.43,33.74-5.67,1.55-11.73,2.56-17.38.96-13.85-3.93-18.96-21.2-17.95-35.56,1.26-17.99,8.35-34.99,15.6-51.5,22.33-50.83,47.14-100.58,74.29-149.01,13.75-24.52,28.1-48.71,43.04-72.52,7.03-11.2,13.68-25.87,22.82-35.42,10.35-10.81,17.86.31,23.74,10.75,15,26.64,34.46,54.68,64.26,61.5,36.03,8.25,69.98-17.62,98.85-40.71,28.87-23.08,66.24-46.15,100.44-32.13,15.23,6.24,26.76,18.98,40.8,27.56,14.04,8.58,34.12,12.05,45.68.33,11.08-11.24,8.33-29.48,10.99-45.04.62-3.63,1.72-7.44,4.51-9.85,7.08-6.1,17.74,1.11,23.36,8.58,22.97,30.57,29.67,70.35,31.02,108.57.95,26.88,1.7,58.28,23.47,74.08,21.33,15.49,53.33,6.07,70.73-13.74,13.64-15.53,20.73-36.64,19.24-57.26-4.04-55.9-64.09-91.71-80.33-145.35-3.02-9.97-2.66-23.73,7.1-27.35,8.89-3.29,17.6,4.77,23.67,12.05,26.55,31.82,53.44,64.18,70.24,102.06,16.8,37.88,22.49,82.69,5.73,120.59Z"/>
</svg>